<svg width="40" height="40" viewBox="0 0 40 40" fill="none" xmlns="http://www.w3.org/2000/svg">
<path d="M26.25 6.06689C26.25 3.9958 24.5711 2.31689 22.5 2.31689C20.4289 2.31689 18.75 3.9958 18.75 6.06689V18.5669C15.2999 18.571 12.5041 21.3668 12.5 24.8169V31.5056L17.5 37.7556V39.8169H20V36.8781L15 30.6281V24.8169C15 22.7458 16.6789 21.0669 18.75 21.0669V29.8169H21.25V6.06689C21.25 5.3765 21.8096 4.81689 22.5 4.81689C23.1904 4.81689 23.75 5.3765 23.75 6.06689V17.0219L27.8375 18.1369L28.495 15.7244L26.245 15.1119L26.25 6.06689Z" fill="#22201E"/>
<path d="M35.7312 17.6981L35.0738 20.1094L37.5 20.7719V31.9006L33.75 36.9006V39.8169H36.25V37.7331L40 32.7331V18.8619L35.7312 17.6981Z" fill="#22201E"/>
<path d="M30.2489 18.7893L32.6609 19.4465L33.3182 17.0345L30.9062 16.3773L30.2489 18.7893Z" fill="#22201E"/>
<path d="M12.1337 8.93311L10.3663 10.7006L11.9825 12.3169H5V14.8169H11.9825L10.3663 16.4331L12.1337 18.2006L16.7675 13.5669L12.1337 8.93311Z" fill="#22201E"/>
<path d="M2.5 12.3169H0V14.8169H2.5V12.3169Z" fill="#22201E"/>
<path d="M7.13374 7.68311L5.51749 6.06686H11.25V3.56686H5.51749L7.13374 1.95061L5.36624 0.183105L0.732491 4.81686L5.36624 9.45061L7.13374 7.68311Z" fill="#22201E"/>
<path d="M16.25 3.56689H13.75V6.06689H16.25V3.56689Z" fill="#22201E"/>
</svg>
