<svg width="383" height="383" viewBox="0 0 383 383" fill="none" xmlns="http://www.w3.org/2000/svg">
<g opacity="0.1">
<g clip-path="url(#clip0)">
<path d="M164.795 5.84074C196.249 5.64445 227.65 3.67201 259.114 3.65286C290.836 3.63371 322.558 3.62414 354.285 3.57147C363.855 3.55711 373.43 3.53796 383 3.43743L383 2.36981C356.037 2.00596 329.05 2.22619 302.086 2.20703C270.508 2.1831 238.973 2.07298 207.409 3.17889C191.615 3.73424 175.821 4.30395 160.017 4.31353C144.511 4.3231 129.042 3.04005 113.588 1.86233C98.2204 0.689388 82.8908 -0.158 67.4702 0.0239243C52.2125 0.205849 36.993 1.17771 21.7448 1.59901C14.487 1.80008 7.18124 1.61337 -1.01316e-07 2.31713L-1.58446e-07 3.62412C8.44516 2.93951 17.0914 3.4039 25.4073 3.00175C40.9954 2.24532 56.6026 1.61337 72.2099 1.52241C103.142 1.34528 133.854 6.03224 164.795 5.84074Z" fill="white"/>
<path d="M81.512 11.6097C112.779 14.9992 144.3 15.0136 175.692 13.7928C207.107 12.572 238.461 10.1016 269.847 8.28239C285.579 7.37277 301.095 7.39192 316.808 8.7037C332.387 10.0011 347.874 12.1268 363.51 12.7013C370.002 12.9406 376.499 12.9981 382.995 12.9741L382.995 11.8874C374.919 11.8874 366.842 11.8299 358.766 11.4852C343.173 10.815 327.69 8.5505 312.14 7.29617C280.849 4.76837 249.357 8.32069 218.109 10.2644C186.727 12.2177 155.292 13.7306 123.838 12.9406C108.126 12.548 92.4275 11.5092 76.8106 9.68033C68.9543 8.75635 61.189 7.72225 53.2657 7.5116C45.3998 7.30095 37.5244 7.69352 29.6825 8.33504C19.7293 9.15371 9.867 10.6187 -0.00961328 11.9592L-0.00961331 12.7443C3.60016 12.4044 7.20996 12.0549 10.8149 11.6528C18.6664 10.7815 26.5132 9.91971 34.3982 9.39787C42.2497 8.88082 50.1203 8.71805 57.9814 9.10105C65.8712 9.48883 73.67 10.7623 81.512 11.6097Z" fill="white"/>
<path d="M182.14 83.1541C184.606 83.2929 187.249 84.0541 189.609 84.734C192.673 85.6149 196 86.7734 198.533 88.7842C201.31 90.9864 198.868 93.0881 196.445 94.0456C193.348 95.2712 189.848 95.4771 186.559 95.5154C183.749 95.5441 180.829 95.367 178.124 94.5675C173.303 93.136 172.843 87.7788 176.654 84.892C178.65 83.3791 181.882 83.8243 184.257 83.8626C185.621 83.8866 187.177 84.1499 188.513 84.3988C189.695 84.6191 189.346 84.2648 188.795 84.1451C186.598 83.6759 184.4 83.178 182.193 82.7328C181.925 82.6801 181.81 83.0918 182.078 83.1445C184.415 83.6137 186.957 84.3893 189.336 84.5042C189.475 84.5089 189.489 84.3079 189.37 84.2744C184.965 82.9147 179.622 80.8561 175.486 84.0398C172.896 86.0362 171.929 89.4927 173.336 92.4562C174.61 95.142 177.937 96.0229 180.604 96.3819C184.4 96.8942 188.259 96.8272 192.051 96.3053C195.555 95.8218 204.69 92.9972 199.711 88.1139C197.417 85.8638 193.922 84.7483 190.935 83.8339C188.163 82.9865 184.979 82.0338 182.078 82.7328C181.839 82.7902 181.906 83.1397 182.14 83.1541Z" fill="white"/>
<path d="M164.01 90.9769C168.147 100.518 178.655 101.385 187.785 100.341C194.128 99.6183 200.175 98.8667 206.585 99.4125C210.841 99.7763 216.237 99.9295 218.415 95.4293C221.494 89.0763 209.434 84.9446 205.441 83.451C199.332 81.1673 193.3 79.2571 186.803 78.4097C180.216 77.5528 173.576 77.2751 167.62 80.7125C165.839 81.7418 164.738 83.5084 163.756 85.2654C162.895 86.8022 163.756 86.5628 162.703 86.1559C161.607 85.7346 163.943 90.8237 164.01 90.9769C164.092 91.1588 164.355 91.0008 164.273 90.8189C163.67 89.4928 162.746 87.9751 162.612 86.4814C162.617 86.5245 163 86.8309 163.067 86.9123C163.129 86.9889 163.278 86.9698 163.321 86.8788C163.948 85.6245 164.69 83.427 166.289 83.1781C167.05 83.0584 168.271 81.9381 168.975 81.5407C171.972 79.8651 175.629 79.3385 179 79.305C185.54 79.2332 192.319 80.6598 198.547 82.5605C202.224 83.6855 205.93 85.1457 209.448 86.7256C212.235 87.9799 216.486 89.8518 217.305 93.1313C217.87 95.3958 215.232 97.1528 213.489 97.7368C211.138 98.5268 208.405 98.1438 205.987 97.9523C200.371 97.507 194.88 97.9666 189.336 98.8236C180.283 100.222 169.363 99.7763 164.269 90.8141C164.173 90.6418 163.934 90.7998 164.01 90.9769Z" fill="white"/>
<path d="M157.509 91.9057C159.098 96.8512 161.937 100.719 166.188 103.716C170.942 107.068 176.491 107.714 182.15 107.546C189.743 107.317 197.221 105.713 204.838 105.742C210.267 105.761 215.639 106.881 221.029 107.36C227.856 107.968 242.903 107.192 240.979 96.6022C240.246 92.5664 236.464 89.1529 233.4 86.7926C229.187 83.5371 224.452 81.287 219.488 79.4247C211.234 76.3272 202.511 74.8191 193.918 73.0094C187.359 71.6306 180.742 70.3907 174.016 70.7354C167.807 71.0513 161.506 73.2632 157.691 78.4241C156.034 80.6598 155.364 84.0781 155.709 86.8022C155.924 88.5018 156.92 90.3258 157.509 91.9057C157.581 92.0972 157.887 92.0206 157.82 91.8195C157.288 90.1678 156.704 88.5209 156.274 86.8357C156.197 86.5341 156.652 84.6287 156.939 84.1787C157.169 83.8244 157.212 83.068 157.317 82.6562C157.585 81.6221 158.102 80.6886 158.667 79.7981C162.023 74.5079 168.85 72.7222 174.681 72.3966C180.374 72.0759 186.138 73.1004 191.701 74.1871C198.375 75.4846 205.063 76.7245 211.631 78.5007C217.846 80.1811 224.093 82.4073 229.556 85.8782C233.482 88.3725 237.991 91.9009 239.437 96.5304C241.371 102.716 233.462 105.473 228.866 105.967C223.476 106.546 217.97 105.598 212.632 104.913C207.897 104.305 203.225 104.176 198.461 104.549C192.4 105.023 186.406 106.058 180.316 106.153C170.162 106.311 162.22 100.868 157.796 91.7764C157.724 91.6184 157.451 91.7333 157.509 91.9057Z" fill="white"/>
<path d="M172.302 79.4151C168.108 79.0225 163.144 82.4456 162.622 86.874C162.148 90.9242 165.82 96.4346 169.865 97.3012C169.999 97.3299 170.1 97.1719 169.999 97.0666C167.51 94.467 164.393 92.0349 163.886 88.181C163.273 83.5036 168.51 80.4061 172.34 79.6975C172.513 79.6736 172.455 79.4294 172.302 79.4151Z" fill="white"/>
<path d="M161.669 75.3361C156.81 77.8495 154.842 82.8094 155.565 88.1283C155.929 90.8237 157.154 93.3993 158.543 95.6973C160.151 98.3592 162.177 100.059 164.834 101.567C164.886 101.596 164.953 101.519 164.901 101.476C161.315 98.6273 158.509 93.227 157.365 88.856C155.977 83.561 157.911 79.1278 161.846 75.5707C161.975 75.451 161.813 75.2595 161.669 75.3361Z" fill="white"/>
<path d="M169.664 80.1237C167.898 80.0806 166.974 80.2912 165.734 81.7035C164.513 83.0967 163.795 85.0404 163.388 86.8309C162.919 88.9039 163.067 90.6705 164.106 92.5281C165.394 94.8404 167.663 95.525 169.635 96.9756C169.683 97.0139 169.741 96.9325 169.698 96.8942C167.098 94.1989 164.015 91.3455 164.896 87.2522C165.365 85.0835 166.897 80.5545 169.659 80.4492C169.87 80.4396 169.87 80.1284 169.664 80.1237Z" fill="white"/>
<path d="M170.861 79.6161C166.481 79.6401 164.91 84.9255 164.834 88.5113C164.786 90.6513 165.7 92.8536 167.041 94.4861C167.912 95.5441 168.865 96.4777 169.947 97.3155C171.048 98.1725 171.929 98.3352 173.226 98.9193C173.312 98.9576 173.384 98.8427 173.303 98.7901C170.124 96.8176 166.787 93.0403 166.337 89.2246C166.121 87.3862 166.548 85.4473 167.29 83.7717C168.056 82.0482 169.645 81.1242 170.995 79.9321C171.12 79.8268 171.019 79.6161 170.861 79.6161Z" fill="white"/>
<path d="M164.264 84.3845C164.12 86.8548 163.378 90.6992 166.251 91.8147C166.428 91.8817 166.552 91.6567 166.48 91.5179C165.777 90.1726 165.528 88.7794 165.442 87.2809C165.375 86.1606 165.379 85.0691 164.47 84.2983C164.388 84.2313 164.269 84.2744 164.264 84.3845Z" fill="white"/>
<path d="M165.758 90.8524C165.446 89.8327 165.26 88.7555 165.039 87.707C164.757 86.3474 165.365 84.9447 166.007 83.7717C166.102 83.5994 165.896 83.3408 165.714 83.4797C164.513 84.4084 163.809 85.2941 163.709 86.8597C163.608 88.4395 164.728 89.7034 165.422 90.9913C165.523 91.1684 165.815 91.0487 165.758 90.8524Z" fill="white"/>
<path d="M170.344 79.6592C167.922 80.4109 166.165 80.9567 164.613 83.1062C163.565 84.5616 162.186 88.0182 163.345 89.6364C163.517 89.8758 163.804 89.8662 163.981 89.6364C164.566 88.8704 164.436 87.9608 164.585 87.0272C164.743 86.0218 165.083 85.0595 165.552 84.1643C166.471 82.3977 168.592 80.6167 170.425 79.9465C170.593 79.8795 170.526 79.6066 170.344 79.6592Z" fill="white"/>
<path d="M195.857 80.88C187.253 78.4719 172.403 74.2924 166.581 84.0206C164.12 88.1283 165.466 93.1887 168.63 96.4538C170.387 98.2635 172.877 99.2736 175.261 99.9151C178.655 100.825 181.604 100.035 185.018 99.8577C185.056 99.8577 185.056 99.8002 185.018 99.7955C182.408 99.6614 179.493 99.3119 176.908 98.8571C174.806 98.4885 172.824 97.6459 171.053 96.4681C166.763 93.6196 165.705 87.9799 168.539 83.7621C171.297 79.6592 177.329 79.3433 181.738 79.4438C186.368 79.5443 191.261 80.1571 195.785 81.1434C195.952 81.1769 196.024 80.9279 195.857 80.88Z" fill="white"/>
<path d="M194.645 74.393C192.558 73.5504 190.686 72.6647 188.484 72.0854C186.277 71.5061 184.012 71.1423 181.748 70.8694C177.085 70.314 172.269 70.7832 167.84 72.3583C160.803 74.8621 154.919 80.9135 156.025 88.8129C156.982 95.6782 163.033 101.26 168.726 104.482C177.051 109.198 186.784 107.944 195.636 105.569C195.861 105.507 195.813 105.162 195.584 105.162C187.148 105.224 179.163 107.556 171.158 103.75C165.442 101.031 159.989 96.0468 158.155 89.8135C155.804 81.8232 162.852 75.7861 169.655 73.4498C177.497 70.7545 186.832 72.3679 194.597 74.6036C194.727 74.6371 194.77 74.4456 194.645 74.393Z" fill="white"/>
<path d="M199.979 69.2752C192.362 68.4661 184.922 66.5894 177.334 65.5936C171.814 64.8707 166.61 65.2872 161.305 67.0107C152.74 69.7874 142.758 76.7054 141.643 86.4479C140.647 95.1181 150.404 101.05 156.757 104.593C166.035 109.768 175.534 114.814 186.224 116.001C192.271 116.671 198.384 116.083 204.378 115.221C211.967 114.129 219.373 113.196 227.062 113.22C233.137 113.239 239.341 114.302 245.297 112.64C249.338 111.51 253.383 108.394 254.542 104.21C256.667 96.54 247.384 89.6604 242.061 86.0889C238.135 83.4557 233.912 81.603 229.594 79.7263C222.772 76.758 215.888 73.9143 208.807 71.6163C197.149 67.8341 184.371 65.9862 172.139 65.493C171.22 65.4547 171.225 66.8814 172.139 66.9245C187.148 67.6283 202.123 70.6061 216.18 75.9106C226.602 79.846 237.714 83.901 246.303 91.2642C249.419 93.9404 252.885 97.5645 253.182 101.902C253.584 107.882 246.398 111.118 241.572 111.755C238.743 112.128 235.842 111.946 233.008 111.783C229.197 111.568 225.386 111.539 221.57 111.664C214.36 111.898 207.385 113.277 200.242 114.105C194.21 114.804 188.12 114.847 182.14 113.718C176.103 112.578 170.737 109.959 165.322 107.154C157.916 103.31 148.235 99.4795 144.262 91.5658C141.945 86.9458 144.228 81.9429 147.187 78.2422C150.72 73.8233 155.891 70.7497 161.104 68.7581C173.671 63.9467 187.095 68.873 199.979 69.5816C200.18 69.5959 200.17 69.2991 199.979 69.2752Z" fill="white"/>
<path d="M176.3 66.3883C174.504 66.2159 173.015 65.7707 171.182 65.8617C169.545 65.9478 167.907 66.2495 166.308 66.5894C162.579 67.3793 159.002 68.8299 155.661 70.6683C150.112 73.7227 144.075 79.0608 143.118 85.6867C142.284 91.4461 146.617 96.1618 150.773 99.4412C156.465 103.932 163.163 107.02 169.564 110.299C169.602 110.318 169.635 110.266 169.597 110.242C166.715 108.317 163.986 106.278 161.013 104.487C158.677 103.08 156.369 101.567 154.129 100.006C149.777 96.9661 144.817 92.7387 144.721 86.965C144.611 80.4061 151.476 75.0728 156.503 72.1189C159.472 70.3715 162.722 69.122 166.035 68.2171C167.72 67.7575 169.449 67.4511 171.182 67.2453C172.819 67.0538 174.672 66.575 176.3 66.6851C176.491 66.6947 176.486 66.4074 176.3 66.3883Z" fill="white"/>
<path d="M215.098 70.1129C211.545 69.1363 208.089 67.9538 204.488 67.0872C200.582 66.1489 196.642 65.3254 192.721 64.4445C185.592 62.8455 178.569 60.8922 171.268 60.2411C159.251 59.1735 148.082 63.5923 138.713 70.9364C131.091 76.9064 124.781 85.9739 127.266 96.0755C129.645 105.761 138.383 111.975 146.885 115.934C156.561 120.439 167.543 123.34 178.042 125.045C192.735 127.429 207.404 125.432 222.169 125.365C229.781 125.332 237.388 125.638 244.991 125.973C249.639 126.179 254.211 126.313 258.851 125.849C266.467 125.093 275.478 123.048 280.136 116.351C284.382 110.247 282.094 102.323 277.651 97.1096C272.212 90.7327 263.897 87.0176 256.304 83.9775C246.633 80.1044 236.593 77.1266 226.769 73.6748C220.263 71.3912 213.757 69.0692 207.002 67.6282C200.759 66.2925 194.344 65.4643 188.331 63.2524C187.44 62.9269 187.081 64.3248 187.943 64.6648C194.487 67.2165 201.439 68.0974 208.266 69.6198C215.595 71.2571 222.705 74.0052 229.786 76.4803C240.194 80.1188 250.913 83.1301 260.971 87.7166C268.923 91.3407 278.661 96.8176 280.557 106.182C282.64 116.485 272.725 121.588 264.366 123.398C253.551 125.739 242.238 124.159 231.313 123.886C223.634 123.695 215.945 123.752 208.275 124.216C200.85 124.662 193.477 124.963 186.047 124.418C174.394 123.556 162.464 120.434 151.563 116.207C141.815 112.43 131.814 106.345 128.784 95.6447C124.494 80.497 142.385 68.466 154.234 63.9849C163.986 60.2985 174.337 61.8449 184.209 64.119C189.326 65.2967 194.449 66.4313 199.591 67.5085C204.675 68.5713 209.927 69.3661 214.935 70.6683C215.303 70.7736 215.457 70.2135 215.098 70.1129Z" fill="white"/>
<path d="M171.651 49.8762C154.478 48.1479 136.267 55.3387 123.02 66.0963C116.834 71.1183 111.395 77.6868 109.356 85.5527C107.297 93.4903 109.921 101.591 114.804 107.925C121.502 116.604 131.321 122.833 140.963 127.721C151.515 133.069 162.847 136.793 174.313 139.58C185.626 142.328 197.187 144.042 208.788 144.946C214.71 145.411 220.67 145.746 226.597 145.262C233.261 144.717 239.796 143.132 246.197 141.246C252.785 139.302 259.262 137.004 265.859 135.103C270.771 133.686 275.765 132.733 280.796 131.853C290.975 130.072 301.703 128.559 310.824 123.364C317.947 119.309 324.497 111.037 321.39 102.457C318.522 94.5388 309.521 89.7226 302.307 86.6059C290.989 81.7131 278.427 80.0423 266.429 77.6341C259.377 76.217 252.373 74.5893 245.551 72.2865C238.523 69.9167 231.887 66.4841 225.079 63.5541C211.976 57.9192 198.437 53.0934 184.333 50.7763C171.823 48.7176 157.03 48.1814 145.301 53.7254C144.549 54.0796 145.205 55.176 145.947 54.8361C152.338 51.9492 160.137 51.346 167.06 51.1545C174.423 50.9534 181.781 51.8439 188.991 53.3041C203.387 56.2196 217.166 61.7444 230.537 67.7336C236.976 70.6157 243.301 73.4307 250.08 75.4319C256.974 77.4618 264.05 78.8358 271.097 80.2098C282.745 82.4791 294.733 84.4563 305.438 89.8423C312.81 93.5526 322.62 100.37 320.226 109.983C317.584 120.616 305.05 124.983 295.748 127.3C285.45 129.866 274.855 130.852 264.639 133.796C251.176 137.679 238.159 143.031 224.021 143.84C212.436 144.501 200.328 142.821 188.924 140.92C177.013 138.933 165.245 135.927 153.947 131.637C142.926 127.453 132.283 121.832 123.235 114.196C115.996 108.087 109.844 99.762 110.424 89.8279C111.194 76.7437 123.235 66.9101 133.633 60.8922C139.723 57.3686 146.316 54.7116 153.104 52.9019C159.055 51.3172 165.489 50.1347 171.656 50.6422C172.149 50.6853 172.135 49.9241 171.651 49.8762Z" fill="white"/>
<path d="M201.549 3.22679C197.058 3.85874 192.4 3.94492 187.866 4.4476C183.227 4.95986 178.579 5.38116 173.92 5.72586C164.824 6.4009 155.876 6.60198 146.804 5.53915C137.966 4.50505 129.229 2.75282 120.362 1.98204C112.023 1.25434 103.338 2.6858 95.0989 1.16337C94.7781 1.10592 94.6488 1.55595 94.9648 1.65649C102.534 4.13641 110.725 2.86772 118.572 3.47095C127.75 4.16993 136.808 5.96524 145.928 7.11424C155.306 8.29675 164.518 8.03344 173.92 7.29616C178.579 6.93231 183.227 6.44399 187.866 5.87906C192.52 5.31414 197.015 4.16993 201.611 3.45659C201.76 3.42787 201.693 3.20764 201.549 3.22679Z" fill="white"/>
<path d="M174.748 5.1035C170.239 4.1077 165.375 4.53379 160.783 4.529C158.294 4.529 155.804 4.52421 153.315 4.52421C151.117 4.52421 148.91 4.34707 146.789 4.98381C146.512 5.06999 146.512 5.46735 146.789 5.54874C148.915 6.19026 151.122 6.01313 153.315 6.00834C155.804 6.00834 158.294 6.00355 160.783 6.00355C165.375 5.99876 170.239 6.42485 174.748 5.42905C174.911 5.40033 174.911 5.1418 174.748 5.1035Z" fill="white"/>
<path d="M174.188 4.17953C171.881 4.83063 169.559 4.93596 167.175 4.87372C165.255 4.82584 162.358 4.03112 160.606 4.95989C160.372 5.08437 160.376 5.45301 160.606 5.57748C162.459 6.61158 165.796 6.14719 167.864 6.12804C170.004 6.10889 172.709 6.01314 174.313 4.39497C174.404 4.30401 174.313 4.14602 174.188 4.17953Z" fill="white"/>
<path d="M169.904 5.08434C165.422 4.82581 160.946 4.6774 156.465 5.04125C156.173 5.06519 156.173 5.47213 156.465 5.49128C160.941 5.85513 165.422 5.70671 169.904 5.44819C170.138 5.4434 170.138 5.0987 169.904 5.08434Z" fill="white"/>
<path d="M383 11.2938C380.386 11.4087 377.772 11.5188 375.158 11.5954C364.999 11.8922 354.821 11.6863 344.676 11.1836C334.852 10.6953 325.043 9.80006 315.281 8.57446C310.618 7.99038 305.95 7.54993 301.258 7.31056C296.193 7.04725 291.128 7.32013 286.053 7.12385C285.962 7.11906 285.962 7.26268 286.053 7.26747C295.681 7.79888 305.596 8.20582 315.099 9.90539C324.808 11.6385 334.838 12.2082 344.676 12.7252C357.44 13.405 370.232 13.4242 383 12.888L383 11.2938Z" fill="white"/>
<path d="M315.286 9.76653C319.417 10.9299 324.478 11.6049 328.767 11.2507C329.481 11.1932 329.715 10.1208 328.944 9.93409C326.886 9.43619 324.808 9.07713 322.706 8.81381C320.638 8.55529 318.187 8.0909 316.186 8.75636C315.812 8.88084 315.822 9.37874 316.186 9.50321C317.943 10.1208 319.953 9.91494 321.806 10.0777C324.095 10.2788 326.359 10.6905 328.59 11.2219C328.648 10.7815 328.71 10.3458 328.767 9.90536C324.305 10.2884 319.647 8.3973 315.286 9.45534C315.132 9.49843 315.137 9.72344 315.286 9.76653Z" fill="white"/>
<path d="M336.925 11.4134C333.382 11.2985 329.289 10.2213 325.842 11.3799C325.679 11.4326 325.679 11.6528 325.842 11.7055C329.294 12.864 333.382 11.7821 336.925 11.672C337.088 11.6624 337.088 11.4182 336.925 11.4134Z" fill="white"/>
<path d="M337.883 10.432C333.966 10.2884 330.199 8.61753 326.321 9.93888C326.139 10.0011 326.187 10.2357 326.364 10.2549C330.203 10.7671 334.029 10.724 337.883 10.724C338.074 10.724 338.074 10.4368 337.883 10.432Z" fill="white"/>
<path d="M12.797 10.8293C8.57437 11.198 4.2417 11.5331 -3.07182e-05 12.2416L-3.08025e-05 14.171C4.5098 13.4433 9.04833 12.9071 13.63 12.505C22.1948 11.7581 30.7166 10.6187 39.291 9.9963C47.8941 9.37393 56.5356 9.20637 65.1531 9.64682C69.6007 9.87662 74.0004 10.5612 78.4144 11.1166C83.0104 11.6959 87.5298 11.9209 92.1498 12.1315C92.303 12.1363 92.2982 11.9113 92.1498 11.8969C83.1014 11.1549 74.2206 8.76113 65.1531 8.04779C56.2531 7.34882 47.2909 7.66479 38.4005 8.30631C29.8453 8.93826 21.3426 10.0873 12.797 10.8293Z" fill="white"/>
<path d="M124.954 50.106C119.582 51.4608 114.431 53.079 110.021 56.5691C105.229 60.3656 103.166 65.7084 101.222 71.3098C99.3406 76.7388 96.2718 84.1116 89.3251 82.2732C87.1612 81.6987 85.1217 80.7316 82.9625 80.138C79.9129 79.2954 76.5616 79.3049 73.421 79.2427C65.8472 79.0847 58.283 79.9465 50.7235 80.3103C40.3011 80.8082 30.0176 79.4342 19.667 78.3809C13.1464 77.7155 6.51094 77.1601 -0.00485392 77.7107L-0.00485399 79.2714C10.2787 78.6586 20.7968 80.3438 30.9033 81.3971C38.1372 82.1535 45.2849 82.4551 52.5524 82.0721C60.107 81.6747 67.6378 80.904 75.2068 81.1481C78.2564 81.2487 81.2486 81.4928 84.1594 82.4407C86.2707 83.1301 88.315 84.1451 90.5364 84.4276C95.6494 85.0787 98.972 80.9949 101.026 76.7915C103.826 71.0656 104.659 64.6839 109.165 59.8773C113.516 55.2382 119.467 53.4189 125.432 51.8917C130.105 50.6948 134.313 48.1192 138.632 46.027C143.883 43.4801 149.284 42.5178 155.081 42.2497C160.563 42.0007 166.069 42.4795 171.527 42.9726C177.286 43.4897 182.844 43.6812 188.608 43.5615C188.838 43.5567 188.833 43.2168 188.608 43.2072C181.106 42.9678 173.547 41.5364 166.064 40.89C158.806 40.2629 151.16 40.0666 144.061 41.9433C137.325 43.7242 131.709 48.4016 124.954 50.106Z" fill="white"/>
<path d="M367.196 103.76C370.773 102.572 374.33 102.261 378.059 101.94C379.711 101.801 381.358 101.6 383.005 101.385L383.005 99.6279C381.966 99.7667 380.927 99.9008 379.883 100.02C376.728 100.38 373.573 100.418 370.457 101.059C367.177 101.734 364.032 103.003 360.934 104.243C354.893 106.661 348.362 109.457 341.708 108.494C335.953 107.661 331.558 103.19 327.886 99.0199C320.303 90.412 313.342 81.3349 302.355 77.007C295.417 74.2733 287.872 72.6695 280.701 70.6539C273.156 68.5379 265.615 66.4074 258.128 64.0903C242.889 59.3746 228.12 53.2753 212.929 48.4112C205.58 46.0558 198.121 44.0737 190.533 42.6949C187 42.0534 183.443 41.5699 179.871 41.2252C177.832 41.0289 175.787 40.914 173.738 40.8374C171.91 40.7704 170.253 41.2778 168.467 41.3161C168.29 41.3209 168.29 41.5938 168.467 41.5938C169.942 41.5842 172.077 41.9289 173.561 42.1539C175.045 42.379 176.62 42.3407 178.124 42.4651C182.155 42.7955 186.162 43.4083 190.131 44.1695C197.403 45.5674 204.56 47.583 211.627 49.7996C225.927 54.2855 239.796 60.0209 254.058 64.6217C268.919 69.414 284.038 73.4498 299.051 77.7203C311.135 81.1577 318.776 91.1636 326.665 100.25C330.179 104.3 334.172 108.073 339.362 109.734C345.361 111.654 352.168 109.505 357.789 107.355C360.925 106.153 364.008 104.818 367.196 103.76Z" fill="white"/>
<path d="M383 87.1613C376.925 88.3964 370.902 89.871 364.798 90.9625C358.201 92.1403 351.489 92.7339 344.805 92.011C337.342 91.2067 330.864 88.114 324.545 84.2217C318.498 80.4971 312.499 76.6958 306.194 73.4163C300.09 70.2374 293.718 67.9729 287.097 66.1537C273.122 62.3093 258.755 59.9108 245.177 54.702C238.149 52.0066 231.222 49.0815 224.16 46.4627C217.003 43.8104 209.807 41.2491 202.64 38.6112C196.244 36.2558 190.045 34.0391 183.294 32.9189C176.807 31.8417 170.205 31.5496 163.642 31.6502C151.678 31.8369 139.618 33.1918 128.367 37.4431C117.476 41.5603 107.072 47.7075 98.5602 55.7122C95.6782 58.4219 93.1839 61.4428 90.9673 64.7174C89.0475 67.5469 86.5388 69.9741 82.9578 69.955C79.9752 69.9406 76.9447 68.6719 74.1057 67.8772C69.5432 66.6037 64.9424 66.0292 60.2219 65.7468C48.2819 65.0334 36.3132 66.2399 24.4545 67.5086C18.6042 68.1357 12.7539 68.7868 6.88919 69.2895C4.59598 69.4858 2.30276 69.6438 0.00475907 69.7826L0.004759 71.5157C1.09631 71.5109 2.1687 71.5013 3.16931 71.4343C7.19559 71.1614 11.2123 70.7641 15.2242 70.3475C22.8938 69.5576 30.549 68.648 38.2377 68.04C45.8546 67.432 53.5051 67.2022 61.1364 67.657C66.867 68.0017 72.1715 69.2704 77.6628 70.8263C80.8273 71.7216 84.0063 72.3296 87.1085 70.922C91.2258 69.0549 93.3993 64.1046 96.2096 60.8348C104.114 51.638 115.158 44.9738 126.198 40.3012C137.607 35.4706 149.724 33.953 162.019 33.5508C168.96 33.321 175.941 33.6418 182.806 34.7142C189.556 35.7674 195.775 38.0511 202.152 40.4065C216.381 45.6632 230.566 50.9438 244.689 56.4925C258.199 61.8019 272.653 64.1573 286.613 67.9299C297.309 70.8215 306.845 75.542 316.296 81.2774C325.177 86.6681 333.473 92.4131 344.035 93.7249C357.349 95.3718 370.122 91.6088 383.005 88.7172L383.005 87.1613L383 87.1613Z" fill="white"/>
<path d="M99.2927 54.6829C97.9139 55.9085 96.6883 57.3016 95.501 58.7092C93.0737 61.5817 90.7374 64.6744 87.6016 66.8096C83.6759 69.4858 79.5203 68.8156 75.1781 67.7528C69.8927 66.4601 64.6168 65.2106 59.2117 64.5499C53.213 63.8126 47.377 64.3345 41.3974 64.8946C34.7907 65.5122 28.1792 66.0628 21.5533 66.4458C15.004 66.824 8.46902 67.7527 1.93886 68.4326C1.29256 68.4996 0.646247 68.5618 -6.1765e-05 68.6289L-6.18497e-05 70.5678C7.49238 69.6869 14.9848 68.6528 22.4964 68.2171C35.37 67.4751 48.5021 64.8084 61.3565 66.6756C66.9723 67.4894 72.4779 68.9927 77.9883 70.3189C81.4306 71.1471 85.0738 70.4146 88.066 68.6097C91.1109 66.7713 93.3514 63.8318 95.5393 61.0885C96.808 59.5039 98.0815 57.924 99.4411 56.4112C100.705 55.0084 102.151 53.2035 103.736 52.1886C103.879 52.0928 103.75 51.863 103.601 51.954C102.103 52.8588 100.633 53.4956 99.2927 54.6829Z" fill="white"/>
<path d="M102.333 66.6229C101.227 68.9352 100.614 71.4678 99.4316 73.7371C97.3873 77.658 94.2084 79.9321 89.7943 80.0614C85.8255 80.1763 81.8423 79.1469 77.9118 78.7209C71.6689 78.041 65.4595 78.9315 59.2692 79.7215C46.6925 81.3348 33.7136 80.7077 21.0698 80.2289C14.171 79.9656 6.99929 79.0751 -0.00482258 79.3815L-0.00482266 81.2343C7.62645 80.9183 15.3822 81.8279 22.956 82.096C36.3084 82.57 49.6033 82.7424 62.8646 81.0572C68.8825 80.2912 74.752 80.0374 80.7747 80.8705C84.418 81.3731 88.2623 82.2684 91.9439 81.6508C95.3622 81.0763 97.8613 79.1278 99.8002 76.2984C101.275 74.1488 101.931 71.712 102.816 69.2943C103.314 67.9346 103.927 66.6276 104.569 65.3302C105.191 64.0711 105.789 62.429 106.646 61.3279C106.766 61.1699 106.56 60.9449 106.421 61.1029C104.827 62.9748 103.434 64.3201 102.333 66.6229Z" fill="white"/>
<path d="M96.9516 79.9321C95.4962 79.98 94.0552 80.3008 92.6381 80.6119C91.3359 80.8992 89.6842 81.0907 88.8416 82.2014C88.6549 82.4503 88.8464 82.8812 89.1384 82.9387C90.2826 83.1637 91.4173 82.5461 92.528 82.2588C94.0504 81.8663 95.6303 81.6508 97.1096 81.1003C97.7033 80.88 97.6554 79.9082 96.9516 79.9321Z" fill="white"/>
<path d="M97.1383 79.4055C97.1814 79.3768 97.2293 79.348 97.2628 79.305C97.3873 79.1518 97.3968 79.0081 97.325 78.8262C97.2245 78.5868 96.6308 78.4528 96.4441 78.5198C95.884 78.7257 95.3478 78.9794 94.8116 79.2427C94.1557 79.5635 93.5141 79.9034 92.8726 80.2481C92.3747 80.5162 91.8146 80.7125 91.5943 81.2678C91.4651 81.603 91.7332 82.0051 92.0587 82.0865C92.887 82.2972 94.1557 81.287 94.8499 80.904C95.3526 80.6263 95.8457 80.3343 96.3484 80.0566C96.5494 79.9465 96.7457 79.8172 96.9468 79.7023C97.0426 79.6449 97.1192 79.5683 97.1766 79.4725C97.3633 79.1565 97.0043 79.5252 96.7936 79.3624C96.7314 79.214 96.6739 79.0656 96.6117 78.9172C96.6165 78.9076 96.6213 78.8932 96.6308 78.8837C96.4729 79.2044 96.8032 79.6305 97.1383 79.4055Z" fill="white"/>
<path d="M97.7847 77.1506C98.0192 82.3546 87.3718 80.612 84.4754 80.2481C84.169 80.2098 84.1402 80.6263 84.3365 80.77C86.9888 82.7281 90.9672 82.4839 94.1078 81.9525C96.7458 81.5072 99.1683 79.9226 98.0384 77.1171C97.981 76.9926 97.7751 76.9926 97.7847 77.1506Z" fill="white"/>
<path d="M95.0318 81.2487C93.1025 81.2152 90.9481 80.9327 89.1193 81.7131C88.9182 81.7992 88.9182 82.1535 89.1193 82.2397C90.9529 83.0201 93.5142 82.8334 95.1563 81.7035C95.3478 81.5695 95.2856 81.2487 95.0318 81.2487Z" fill="white"/>
<path d="M-6.11151e-05 79.8076C1.6995 79.7837 3.40386 79.8699 5.09864 79.9752C9.60367 80.2481 14.3672 81.2199 18.8627 80.5688C19.3845 80.4922 19.375 79.6066 18.8627 79.5204C14.3672 78.7927 9.64676 78.6491 5.09864 78.3044C3.63845 78.1943 1.84791 78.0219 -6.10352e-05 77.9788L-6.11151e-05 79.8076Z" fill="white"/>
<path d="M21.6634 80.2864C20.3325 79.8555 18.901 79.7885 17.5174 79.6209C16.1577 79.4533 14.6353 79.1517 13.3139 79.5874C12.8543 79.7358 12.8735 80.3486 13.3139 80.5018C14.6161 80.9614 16.1482 80.8561 17.5174 80.9518C18.901 81.0476 20.3181 81.172 21.6634 80.7651C21.9028 80.6933 21.8932 80.363 21.6634 80.2864Z" fill="white"/>
<path d="M380.836 87.7836C381.554 87.64 382.277 87.5059 383 87.3671L383 85.5814C382.43 85.6963 381.856 85.8112 381.286 85.9261C372.587 87.6687 363.845 89.7561 354.998 90.5316C346.548 91.2737 338.098 90.2731 330.314 86.7734C323.075 83.5227 317.325 77.8017 309.603 75.5659C309.435 75.518 309.368 75.767 309.531 75.8292C317.694 78.8501 323.826 85.7154 331.855 89.1241C339.166 92.2264 347.156 92.8488 354.998 92.2503C363.697 91.5897 372.29 89.4736 380.836 87.7836Z" fill="white"/>
<path d="M360.992 91.9822C360.489 91.6328 360.403 91.3024 359.737 91.0535C358.632 90.637 357.301 90.6178 356.137 90.5843C354.256 90.5364 351.254 90.5604 349.679 91.7477C349.325 92.0158 349.516 92.6142 349.99 92.4945C351.819 92.0397 353.772 92.1642 355.639 92.1307C355.678 92.1307 355.678 92.0732 355.639 92.0684C353.767 92.0349 351.819 92.1594 349.99 91.7046C349.952 91.9727 349.918 92.2408 349.88 92.5089C351.781 92.4083 353.653 91.8817 355.577 91.8003C356.626 91.7572 357.674 91.7907 358.718 91.8913C359.096 91.9296 360.46 91.987 360.843 92.2168C361.006 92.3174 361.135 92.0876 360.992 91.9822Z" fill="white"/>
<path d="M369.609 89.5119C366.296 88.8991 363.146 89.3539 359.872 90.0098C355.898 90.8093 351.785 91.2737 347.855 92.1929C347.477 92.2839 347.458 92.9015 347.855 92.9781C351.043 93.6004 354.543 92.6142 357.655 91.9248C361.595 91.0535 365.54 90.2444 369.561 89.8806C369.758 89.8614 369.834 89.5502 369.609 89.5119Z" fill="white"/>
<path d="M363.323 104.473C359.991 104.889 357.08 105.598 353.868 106.646C350.148 107.862 346.538 107.92 342.718 107.13C339.127 106.388 335.738 104.846 332.621 102.941C329.739 101.179 327.738 98.6178 325.062 96.6884C324.832 96.5256 324.549 96.8416 324.688 97.0666C326.464 99.987 328.355 102.012 331.204 103.951C334.33 106.077 337.921 107.575 341.569 108.523C344.757 109.351 348.085 109.476 351.321 108.906C355.505 108.169 359.182 105.426 363.371 104.818C363.558 104.789 363.515 104.449 363.323 104.473Z" fill="white"/>
<path d="M205.02 47.0947C203.253 46.2042 201.693 45.2563 199.787 44.6483C197.441 43.9014 194.933 43.5854 192.515 43.1833C187.852 42.4029 183.299 41.1294 178.602 40.5071C173.571 39.8416 168.534 39.607 163.464 39.8368C161.147 39.9421 158.878 40.239 156.585 40.5741C154.277 40.9092 151.874 40.8661 149.652 41.613C149.341 41.7183 149.332 42.1588 149.652 42.2593C153.415 43.4466 157.82 41.9816 161.645 41.68C166.409 41.3066 171.206 41.4311 175.96 41.8811C180.891 42.3455 185.621 43.6094 190.485 44.4041C192.659 44.7584 194.837 45.0696 196.996 45.4717C199.519 45.9457 202.497 46.3191 204.847 47.3819C205.044 47.4681 205.216 47.1952 205.02 47.0947Z" fill="white"/>
<path d="M296.93 128.147C294.757 128.434 292.521 128.166 290.314 128.482C287.547 128.875 284.88 129.545 282.19 130.292C277.278 131.656 272.351 133.045 267.487 134.581C262.791 136.066 258.152 137.703 253.335 138.77C249.242 139.68 244.019 139.235 240.447 141.667C240.127 141.887 240.337 142.332 240.701 142.275C244.77 141.609 248.897 141.399 252.957 140.676C257.802 139.814 262.475 138.134 267.142 136.616C276.957 133.423 286.929 130.699 296.964 128.425C297.117 128.386 297.083 128.123 296.93 128.147Z" fill="white"/>
<path d="M267.066 135.003C265.084 134.438 263.131 134.84 261.158 135.285C258.855 135.807 256.227 136.41 254.135 137.531C253.709 137.76 253.919 138.411 254.374 138.416C256.289 138.445 258.171 137.679 259.995 137.152C262.326 136.477 264.773 136.18 267.066 135.405C267.257 135.338 267.272 135.06 267.066 135.003Z" fill="white"/>
<path d="M262.479 136.774C256.486 137.981 250.64 139.991 244.593 140.934C240.984 141.495 237.383 142.103 233.774 142.658C231.969 142.936 230.164 143.199 228.364 143.486C226.415 143.797 224.491 144.573 222.542 144.712C222.37 144.726 222.365 144.98 222.542 144.985C225.922 145.037 229.039 144.999 232.414 144.539C236.335 144.003 240.242 143.376 244.148 142.763C247.892 142.179 251.43 141.097 255.092 140.173C257.687 139.517 260.823 139.268 262.681 137.114C262.81 136.956 262.681 136.731 262.479 136.774Z" fill="white"/>
<path d="M252.675 105.512C251.775 106.522 251.114 107.695 250.243 108.729C249.007 110.204 247.289 111.257 245.527 111.965C241.932 113.416 237.235 112.683 233.453 112.559C229.158 112.42 224.869 112.195 220.574 112.162C217.941 112.142 214.767 111.443 212.646 113.354C212.527 113.464 212.622 113.67 212.776 113.67C221.197 113.646 229.628 114.254 238.054 114.345C241.62 114.383 244.809 114.316 247.988 112.535C250.343 111.214 252.919 108.446 252.914 105.603C252.914 105.497 252.756 105.421 252.675 105.512Z" fill="white"/>
<path d="M383 22.8699L383 21.5055C376.326 21.9651 369.652 22.4821 362.96 22.7742C355.769 23.0902 348.564 23.0423 341.397 22.3146C333.761 21.539 326.235 20.3038 318.551 19.8586C302.919 18.9538 287.245 19.6527 271.6 19.8107C263.763 19.8873 255.959 19.6862 248.131 19.3894C240.447 19.1022 232.759 19.6671 225.103 20.3038C217.515 20.9358 209.855 21.8981 202.234 21.6539C194.55 21.4049 186.966 19.8011 179.397 18.5995C164.336 16.2153 148.877 17.1536 133.681 17.1536C120.803 17.1536 108.025 17.5271 95.166 18.1399C90.9529 18.3409 86.874 18.1399 82.6754 17.7617C75.5324 17.1153 68.3224 17.2638 61.1699 17.6468C47.0085 18.408 32.9428 20.6485 18.7766 21.2613C12.5863 21.5294 6.26205 21.2182 0.00479107 21.3618L0.004791 22.9082C6.54932 22.7981 13.1513 23.1332 19.5378 22.8651C33.7423 22.2619 47.8511 20.0118 62.0508 19.2458C69.1985 18.8628 76.375 18.8341 83.5084 19.4756C87.5969 19.8442 91.5849 19.9495 95.6878 19.7533C108.691 19.1357 121.617 18.7862 134.639 18.7862C150.351 18.7862 166.078 18.0489 181.638 20.5959C188.771 21.764 195.89 23.071 203.129 23.3056C210.741 23.5497 218.454 22.4773 226.032 21.8502C233.702 21.2087 241.381 20.7538 249.079 21.0411C256.907 21.3331 264.715 21.4911 272.552 21.4145C288.203 21.2565 303.858 20.615 319.503 21.5199C326.862 21.9459 334.096 23.1093 341.411 23.9184C348.564 24.7083 355.793 24.6461 362.974 24.3445C369.643 24.062 376.321 23.4588 383 22.8699Z" fill="white"/>
<path d="M380.271 57.3399C381.181 57.2298 382.09 57.1149 383 57L383 55.4106C377.116 56.1383 371.213 56.7367 365.358 57.6128C350.933 59.772 336.959 63.0945 322.251 61.9024C314.591 61.2848 307.29 59.1496 299.961 56.9665C292.741 54.8169 285.56 52.5476 278.374 50.3023C264.05 45.826 249.678 41.4646 235.018 38.2234C220.23 34.9488 205.068 32.9045 190.064 30.8746C175.232 28.8686 160.324 27.5186 145.353 27.3893C134.423 27.2936 124.633 30.6448 114.953 35.5089C105.622 40.1959 96.6261 45.7829 86.3809 48.2532C78.6347 50.1204 71.5013 49.0863 63.8461 47.425C54.6014 45.4238 45.127 44.5668 35.6812 44.4136C23.7795 44.2221 11.8108 45.2179 0.0047904 47.1042L0.00479032 48.9139C22.506 45.5291 45.3185 44.4998 67.657 50.0294C89.3443 55.3962 106.919 39.5735 125.94 32.4545C138.397 27.7915 151.73 28.9596 164.743 29.8836C179.981 30.9656 195.115 33.1918 210.195 35.5664C225.238 37.9314 239.997 40.8326 254.676 44.9499C269.139 49.0049 283.396 53.7493 297.773 58.082C306.678 60.7678 315.458 63.2142 324.779 63.7743C333.981 64.3297 343.197 63.1807 352.255 61.6439C361.605 60.0544 370.849 58.4698 380.271 57.3399Z" fill="white"/>
<path d="M37.7207 32.7561C45.4669 30.9177 53.3088 29.4719 61.2369 28.7537C67.2165 28.2128 73.2535 28.2654 79.2523 27.9973C85.2654 27.734 91.2785 27.3845 97.2868 27.0302C110.314 26.2642 123.345 25.436 136.386 24.9477C148.815 24.4833 161.224 24.196 173.533 26.2403C178.756 27.1068 183.95 28.117 189.216 28.6915C194.995 29.3235 200.812 29.4336 206.619 29.3474C220.249 29.1463 233.903 31.181 247.413 32.7657C262.829 34.5753 278.24 36.4568 293.727 37.5723C312.155 38.8985 330.634 38.4819 349.095 38.2761C358.617 38.1708 368.135 38.0128 377.657 37.8931C379.438 37.8692 381.219 37.8309 383 37.7878L383 36.2893C382.808 36.2893 382.612 36.2845 382.421 36.2845C374.488 36.2797 366.55 36.409 358.617 36.4951C342.838 36.6579 327.029 37.0601 311.25 36.7297C280.275 36.0786 249.682 30.6496 218.861 28.0356C207.423 27.0685 196.019 28.0739 184.606 26.4079C179.479 25.661 174.404 24.5647 169.262 23.8849C162.986 23.0566 156.7 22.8699 150.371 22.9178C125.313 23.0949 100.336 25.5078 75.3122 26.4701C67.4415 26.7717 59.6666 27.0207 51.863 28.2175C42.6231 29.6346 33.5364 31.9566 24.512 34.3886C20.1075 35.5759 15.77 36.8302 11.2698 37.5962C7.5451 38.2282 3.77255 38.5729 -6.95702e-07 38.8266L-7.679e-07 40.4783C5.09869 40.1288 10.1735 39.5974 15.2051 38.5777C22.7789 37.0313 30.19 34.5418 37.7207 32.7561Z" fill="white"/>
<path d="M165.801 5.53436C163.168 5.137 160.563 4.89284 157.901 4.754C155.359 4.62474 152.391 4.16992 149.944 4.99816C149.552 5.13221 149.49 5.75937 149.944 5.8647C152.472 6.43441 155.311 6.08971 157.901 6.19025C160.578 6.29557 163.148 6.33866 165.801 5.97481C166.021 5.9413 166.016 5.56787 165.801 5.53436Z" fill="white"/>
<path d="M168.056 5.81684C165.432 5.13223 162.622 5.43384 159.946 5.60619C157.001 5.79769 153.794 5.43384 150.916 6.00355C150.481 6.08973 150.586 6.65465 150.916 6.7887C153.391 7.78929 156.455 7.29139 159.06 7.10946C162.033 6.89881 165.116 6.84136 168.051 6.33389C168.319 6.28601 168.295 5.87908 168.056 5.81684Z" fill="white"/>
<path d="M166.385 5.5248C162.761 5.80248 158.988 5.66843 155.412 6.37219C155.072 6.43921 155.062 7.00893 155.412 7.07116C159.041 7.68875 162.799 6.35783 166.385 5.98919C166.672 5.95089 166.677 5.50086 166.385 5.5248Z" fill="white"/>
<path d="M259.573 149.992C266.075 147.594 272.284 144.472 278.719 141.897C283.65 139.924 288.624 138.651 293.814 137.602C298.582 136.64 303.226 135.266 307.568 133.04C312.207 130.66 315.87 126.802 319.886 123.541C324.473 119.826 329.279 117.758 335.12 117.035C340.248 116.399 345.466 116.528 350.617 116.647C356.042 116.772 361.437 116.671 366.852 116.662C372.233 116.652 377.614 116.509 382.995 116.341L382.995 114.656C374.952 114.876 366.904 115.12 358.861 115.068C346.342 114.986 332.205 112.717 321.284 120.262C315.774 124.073 311.403 129.205 305.308 132.169C299.228 135.127 292.516 135.687 286.091 137.464C279.623 139.249 273.495 142.136 267.367 144.836C260.646 147.8 253.9 150.28 246.695 151.759C239.212 153.291 231.567 153.947 223.945 154.162C216.438 154.373 209.013 153.751 201.525 153.482C194.128 153.219 186.722 153.358 179.344 152.731C172.111 152.118 165.317 150.203 158.457 147.915C146.627 143.965 135.055 138.89 124.93 131.503C119.697 127.687 114.838 123.096 111.032 117.83C108.059 113.718 105.339 109.414 102.218 105.411C97.6458 99.5417 92.2168 95.0654 85.1217 92.6621C80.4108 91.0679 75.36 90.5795 70.4433 90.0721C64.636 89.4736 58.7953 89.1672 52.9641 88.9135C47.3723 88.6741 41.7805 88.5161 36.1887 88.2959C31.0852 88.0948 26.3935 88.09 21.4097 89.3491C14.0992 91.2019 7.25781 94.5867 -0.00482213 96.3724L-0.00482222 98.2156C9.49838 95.9511 18.3217 90.9003 28.1792 89.9907C31.4012 89.6938 34.7046 90.0673 37.9313 90.1917C41.7565 90.3402 45.5865 90.4598 49.4118 90.5987C56.7175 90.8716 64.0184 91.2306 71.2954 91.9823C77.5862 92.6334 83.8578 93.543 89.5358 96.4873C93.7967 98.6991 97.2341 102.084 100.231 105.794C103.558 109.916 106.383 114.44 109.466 118.744C112.975 123.642 117.342 127.865 122.052 131.58C131.522 139.048 142.62 144.161 153.885 148.24C160.108 150.495 166.447 152.63 172.977 153.741C180.029 154.943 187.23 155.019 194.363 155.129C201.851 155.244 209.305 155.871 216.792 155.996C224.246 156.12 231.705 155.752 239.102 154.813C246.092 153.928 252.957 152.434 259.573 149.992Z" fill="white"/>
<path d="M267.813 154.138C275.473 151.826 283.128 149.514 290.783 147.201C295.738 145.708 300.602 144.195 305.328 142.064C309.79 140.049 314.084 137.665 318.426 135.41C323.027 133.021 327.714 130.838 332.645 129.234C337.442 127.673 342.503 126.883 347.472 126.103C359.206 124.25 371.089 123.364 382.995 123.082L382.995 121.78C378.835 121.847 374.675 121.99 370.514 122.225C357.344 122.962 343.278 123.968 330.697 128.209C318.263 132.403 307.549 140.413 294.934 144.209C279.714 148.791 264.548 153.789 249.204 157.93C235.545 161.616 221.388 161.262 207.452 159.711C200.477 158.935 193.535 157.892 186.574 157.011C179.593 156.125 172.58 155.627 165.595 154.809C153.315 153.368 140.939 150.936 129.961 144.98C124.346 141.93 119.362 137.88 115.072 133.145C110.323 127.908 105.234 122.986 100.064 118.17C96.1808 114.555 92.2408 111.008 88.3437 107.408C84.9829 104.305 81.8567 101.275 77.5862 99.4747C69.5336 96.0708 60.5619 96.2288 52.0018 96.7219C47.7601 96.966 43.5327 97.3395 39.2862 97.507C34.4125 97.6985 29.5197 97.4687 24.6412 97.4209C16.3062 97.3395 7.89935 97.6315 -0.0096132 100.15L-0.00961327 101.687C11.2841 98.1342 23.8226 99.2305 35.4562 99.2976C46.8409 99.3646 58.2686 97.0379 69.6102 98.9481C75.7095 99.9774 80.6502 102.611 85.1505 106.809C90.2779 111.597 95.5106 116.264 100.624 121.062C110.127 129.971 118.112 140.518 129.722 146.813C140.073 152.429 151.826 154.761 163.383 156.259C170.229 157.15 177.123 157.595 183.979 158.409C190.993 159.242 197.982 160.286 204.991 161.142C218.468 162.785 232.017 163.354 245.388 160.592C252.991 159.017 260.402 156.374 267.813 154.138Z" fill="white"/>
<path d="M244.316 166.907C251.272 164.905 258.243 163.024 265.251 161.224C272.26 159.424 279.207 157.437 285.9 154.646C292.215 152.013 298.256 148.776 304.609 146.196C312.877 142.84 321.351 139.809 330.045 137.76C338.926 135.668 348.118 135.07 357.214 135.065C365.775 135.06 374.411 135.659 382.995 136.75L382.995 135.271C367.407 133.04 351.551 132.595 336.092 134.964C323.415 136.908 311.049 141.456 299.295 146.483C292.751 149.284 286.513 152.745 279.81 155.163C272.964 157.633 265.864 159.318 258.827 161.114C245.086 164.618 231.5 169.918 217.166 170.153C209.736 170.272 202.55 168.056 195.459 166.078C188.307 164.082 181.188 161.976 173.906 160.491C166.548 158.993 159.103 157.978 151.754 156.422C144.453 154.876 137.219 153.009 130.124 150.696C117.543 146.598 108.14 138.048 98.1294 129.751C91.537 124.288 84.9207 119.841 76.6 117.547C68.3751 115.278 59.7288 114.857 51.2741 114.129C41.7853 113.311 32.464 111.343 22.9944 110.338C15.3391 109.524 7.67435 109.184 0.00476074 109.428L0.00476067 110.989C12.0836 110.744 24.2152 111.874 36.0977 113.837C42.1396 114.838 48.1287 115.599 54.2328 116.106C60.6145 116.633 67.001 117.164 73.2774 118.505C79.4629 119.826 85.3707 122.158 90.4885 125.93C95.6782 129.756 100.509 134.016 105.464 138.134C110.055 141.949 114.838 145.535 120.104 148.365C126.012 151.544 132.58 153.368 139.019 155.115C153.53 159.055 168.515 160.578 183.04 164.379C190.255 166.265 197.379 168.482 204.627 170.248C211.296 171.876 217.826 172.144 224.639 171.311C231.313 170.492 237.857 168.764 244.316 166.907Z" fill="white"/>
<path d="M250.027 171.512C257.328 169.42 264.72 167.615 272.064 165.681C287.02 161.741 301.986 157.849 317.076 154.459C324.42 152.812 331.735 151.342 339.228 150.533C346.471 149.753 353.767 149.447 361.049 149.317C368.369 149.188 375.685 149.284 383.005 149.38L383.005 148.073C375.383 147.867 367.761 147.723 360.135 147.833C352.551 147.943 344.968 148.355 337.428 149.198C330.112 150.016 322.95 151.553 315.774 153.157C300.679 156.527 285.708 160.439 270.747 164.364C263.432 166.284 256.083 168.084 248.811 170.162C241.893 172.135 234.99 174.164 227.933 175.605C220.704 177.085 213.417 177.678 206.078 176.793C198.571 175.893 191.28 173.533 184.103 171.249C176.932 168.965 169.731 166.653 162.402 164.939C155.029 163.215 147.508 162.2 140.058 160.87C136.496 160.233 132.958 159.5 129.449 158.619C125.715 157.681 122.1 155.723 118.677 153.995C112.387 150.816 106.397 147.072 100.312 143.524C94.4382 140.101 88.4873 136.597 81.8518 134.926C75.4318 133.308 68.6815 133.452 62.1417 134.012C55.2956 134.601 48.5117 135.778 41.6656 136.386C36.4999 136.846 31.4203 136.353 26.269 135.922C20.8112 135.462 15.3344 135.055 9.85745 135.328C6.56845 135.491 3.09271 135.931 0.0143431 137.238L0.014343 139.053C3.62411 137.368 7.85147 137.052 11.7677 136.942C17.2398 136.788 22.7262 137.32 28.1744 137.784C33.5603 138.244 38.7021 138.402 44.0928 137.856C50.9438 137.162 57.7372 135.998 64.6121 135.51C71.621 135.012 78.6634 135.414 85.3467 137.722C92.1211 140.058 98.4406 144.348 104.583 147.982C110.653 151.572 116.753 155.12 123.197 157.997C129.823 160.956 136.98 162.057 144.089 163.259C151.563 164.518 159.055 165.686 166.385 167.658C173.633 169.607 180.757 171.972 187.924 174.193C194.712 176.3 201.592 178.081 208.682 178.727C215.562 179.354 222.494 178.401 229.225 177.023C236.249 175.586 243.133 173.489 250.027 171.512Z" fill="white"/>
<path d="M294.498 174.634C309.991 172.163 325.478 169.128 341.133 167.898C355.051 166.806 369.03 166.797 383 166.859L383 165.59C375.364 165.442 367.723 165.346 360.077 165.461C345.073 165.691 330.395 167.227 315.587 169.588C284.382 174.552 253.082 180.053 221.508 182.049C213.752 182.538 205.867 182.725 198.131 181.863C190.748 181.039 183.553 178.918 176.395 177.008C169.252 175.103 162.042 173.939 154.818 172.446C147.67 170.966 140.671 168.807 133.787 166.39C126.773 163.929 119.965 160.846 112.77 158.94C106 157.145 98.9815 156.408 91.9918 156.283C84.552 156.154 77.1936 157.064 69.7969 157.705C62.18 158.366 54.5439 158.725 46.9031 158.725C35.5327 158.725 24.5024 157.312 13.2852 155.637C8.85681 154.976 4.42838 154.67 0.00473022 154.675L0.00473016 156.25C1.69473 156.254 3.3895 156.302 5.08905 156.408C12.6725 156.877 20.1122 158.596 27.6573 159.419C42.8577 161.08 58.2399 160.501 73.4306 159.065C88.3676 157.657 102.96 157.336 117.409 162.081C124.451 164.393 131.264 167.4 138.316 169.717C145.286 172.01 152.396 173.844 159.63 175.074C173.719 177.473 187.306 182.859 201.616 183.883C217.204 184.999 232.96 182.892 248.423 181.149C263.839 179.421 279.183 177.075 294.498 174.634Z" fill="white"/>
<path d="M39.6739 229.661C26.4509 230.126 13.2278 230.595 -7.63863e-05 230.748L-7.64539e-05 232.294C30.4724 232.002 60.9017 230.154 91.3789 230.135C123.101 230.116 154.823 230.111 186.545 230.054C200.74 230.03 214.935 230.015 229.12 229.704C229.513 229.695 229.513 229.101 229.12 229.091C197.547 228.397 165.93 228.708 134.347 228.689C102.773 228.665 71.2379 228.555 39.6739 229.661Z" fill="white"/>
<path d="M71.3433 240.72C102.61 244.287 134.117 245.139 165.561 244.68C197.02 244.215 228.445 242.453 259.861 240.754C274.252 239.978 288.437 239.835 302.809 241.055C308.578 241.549 314.022 242.243 319.791 241.587C324.549 241.046 329.423 240.017 334.225 240.505C350.421 242.147 366.722 242.161 383 241.936L383 240.941C371.486 240.941 359.972 241.036 348.458 240.543C342.052 240.266 335.489 239.03 329.097 239.547C324.138 239.945 319.226 240.941 314.242 241.06C311.312 241.132 308.315 240.558 305.399 240.27C301.756 239.916 298.108 239.629 294.455 239.346C287.556 238.815 280.624 238.7 273.706 238.863C258.041 239.231 242.367 240.457 226.717 241.233C195.397 242.784 164.034 243.918 132.671 243.267C116.939 242.942 101.217 242.142 85.543 240.759C69.7634 239.365 54.1083 236.517 38.2377 236.517C28.1457 236.517 18.0775 237.403 8.05252 238.504C5.36194 238.801 2.67615 239.14 -0.00964369 239.504L-0.00964374 240.763C0.16272 240.744 0.335052 240.73 0.502624 240.711C8.35413 239.839 16.2008 238.978 24.0858 238.456C31.9373 237.939 39.808 237.776 47.6691 238.159C55.6115 238.547 63.463 239.82 71.3433 240.72Z" fill="white"/>
<path d="M14.4055 309.636C16.8711 309.775 19.5138 310.536 21.874 311.211C24.938 312.092 28.2653 313.251 30.7979 315.262C33.5747 317.464 31.133 319.566 28.7105 320.523C25.613 321.749 22.1134 321.955 18.8244 321.993C16.0141 322.026 13.0937 321.849 10.3888 321.045C5.56301 319.614 5.10341 314.256 8.91904 311.369C10.9154 309.857 14.147 310.302 16.5216 310.34C17.886 310.364 19.442 310.627 20.7777 310.876C21.9602 311.097 21.6107 310.742 21.0601 310.623C18.8627 310.153 16.6652 309.656 14.4582 309.21C14.1901 309.158 14.0752 309.569 14.3433 309.627C16.6796 310.096 19.2217 310.872 21.6011 310.986C21.7352 310.991 21.7543 310.79 21.6346 310.757C17.2301 309.397 11.8873 307.338 7.75089 310.522C5.16086 312.514 4.19379 315.975 5.60131 318.939C6.87479 321.624 10.2021 322.505 12.8687 322.864C16.6652 323.377 20.5239 323.309 24.3156 322.788C27.8201 322.304 36.9546 319.479 31.9756 314.596C29.6824 312.346 26.1876 311.226 23.2002 310.316C20.4282 309.474 17.2445 308.516 14.3433 309.215C14.1039 309.273 14.1757 309.622 14.4055 309.636Z" fill="white"/>
<path d="M-9.17519e-05 308.89C0.459507 308.559 0.909523 308.21 1.24465 308.023C4.24162 306.347 7.89928 305.826 11.2697 305.787C17.8094 305.715 24.5885 307.142 30.8171 309.043C34.4939 310.168 38.1994 311.628 41.7182 313.208C44.5045 314.462 48.7558 316.334 49.5793 319.618C50.1442 321.883 47.5063 323.64 45.7636 324.224C43.413 325.014 40.6793 324.631 38.2616 324.439C32.6459 323.994 27.1546 324.454 21.6107 325.311C14.2667 326.445 5.69704 326.364 0.00469896 321.509L0.0046989 322.692C5.13211 327.283 13.0028 327.623 20.0595 326.819C26.403 326.096 32.4496 325.344 38.86 325.89C43.1113 326.254 48.5117 326.407 50.69 321.907C53.7683 315.554 41.7086 311.422 37.7159 309.928C31.607 307.645 25.5747 305.735 19.0781 304.887C12.5288 304.035 5.93163 303.757 0.00469958 307.133L0.00469951 308.89L-9.17519e-05 308.89Z" fill="white"/>
<path d="M-6.10827e-05 298.252L-6.11608e-05 300.037C2.29315 299.358 4.69649 299.008 6.9514 298.884C12.6437 298.563 18.4079 299.587 23.971 300.674C30.6447 301.972 37.3329 303.212 43.9013 304.988C50.1155 306.668 56.3632 308.894 61.8257 312.365C65.7515 314.86 70.2613 318.388 71.7071 323.017C73.6413 329.203 65.7323 331.961 61.1363 332.454C55.7456 333.033 50.2399 332.085 44.9019 331.4C40.167 330.792 35.4945 330.663 30.7309 331.037C24.6699 331.51 18.676 332.545 12.5863 332.64C7.8658 332.717 3.62886 331.577 -0.00485371 329.428L-0.00485378 331.175C4.38528 333.674 9.3547 334.182 14.4103 334.029C22.0033 333.799 29.4814 332.195 37.0983 332.224C42.5273 332.243 47.8989 333.363 53.2944 333.847C60.1214 334.455 75.1685 333.679 73.2439 323.089C72.5066 319.049 68.7293 315.64 65.6653 313.28C61.4523 310.029 56.7174 307.774 51.7576 305.912C43.5039 302.814 34.7811 301.306 26.1876 299.496C19.6287 298.118 13.0172 296.878 6.28593 297.222C4.16507 297.328 2.03941 297.663 -6.10827e-05 298.252Z" fill="white"/>
<path d="M-6.11061e-05 322.893C0.684544 323.314 1.40267 323.63 2.13036 323.783C2.26441 323.812 2.36493 323.654 2.26439 323.549C1.5367 322.788 0.751568 322.041 -6.10352e-05 321.27L-6.11061e-05 322.893Z" fill="white"/>
<path d="M-9.16462e-05 308.004C1.46967 307.08 3.14051 306.457 4.60548 306.185C4.77783 306.151 4.72037 305.912 4.56717 305.897C3.0639 305.754 1.4601 306.113 -9.15947e-05 306.826L-9.16462e-05 308.004Z" fill="white"/>
<path d="M-9.06399e-05 322.247C0.636649 322.625 1.28295 323.003 1.90054 323.458C1.94842 323.496 2.00587 323.415 1.96278 323.376C1.31647 322.706 0.636645 322.022 -0.00488281 321.313L-0.00488285 322.247L-9.06399e-05 322.247Z" fill="white"/>
<path d="M-6.10883e-05 307.812C0.560084 307.295 1.20163 306.955 1.92934 306.927C2.13521 306.917 2.13521 306.606 1.92934 306.601C1.15854 306.582 0.545721 306.611 -6.10427e-05 306.769L-6.10883e-05 307.812Z" fill="white"/>
<path d="M-6.11293e-05 321.763C0.679763 322.5 1.41225 323.175 2.21176 323.798C3.31288 324.655 4.19377 324.818 5.49118 325.406C5.57736 325.445 5.64919 325.33 5.5678 325.277C3.4996 323.994 1.36438 321.94 -6.10352e-05 319.609L-6.11293e-05 321.763Z" fill="white"/>
<path d="M-9.17005e-05 309.474C0.842512 308.229 2.13035 307.415 3.26021 306.414C3.38469 306.304 3.28416 306.094 3.12617 306.094C1.85748 306.098 0.82815 306.548 -9.1604e-05 307.267L-9.17005e-05 309.474Z" fill="white"/>
<path d="M-6.10755e-05 307.061L-6.11188e-05 308.052C0.852105 307.334 1.8048 306.75 2.68569 306.429C2.85804 306.367 2.79103 306.089 2.6091 306.146C1.64204 306.443 0.785081 306.711 -6.10755e-05 307.061Z" fill="white"/>
<path d="M-9.16781e-05 321.888C0.282371 322.251 0.579195 322.606 0.89517 322.931C2.65219 324.741 5.14168 325.751 7.52586 326.393C10.9202 327.302 13.8693 326.512 17.2828 326.335C17.3211 326.335 17.3211 326.278 17.2828 326.273C14.6736 326.139 11.758 325.789 9.17276 325.335C7.07104 324.966 5.08903 324.123 3.31765 322.946C1.78565 321.931 0.674948 320.557 -9.15527e-05 319.02L-9.16781e-05 321.888Z" fill="white"/>
<path d="M-9.17499e-05 308.885L-9.18738e-05 311.719C0.220134 311.211 0.483444 310.718 0.804207 310.24C3.56181 306.137 9.59407 305.821 14.0034 305.921C18.6329 306.022 23.5257 306.635 28.0499 307.621C28.2175 307.659 28.2893 307.405 28.1217 307.358C20.0356 305.098 6.4439 301.277 -9.17499e-05 308.885Z" fill="white"/>
<path d="M-6.10352e-05 328.298L-6.11262e-05 330.381C0.330276 330.582 0.660616 330.778 0.990955 330.965C9.31642 335.68 19.0494 334.426 27.9015 332.051C28.1265 331.989 28.0786 331.644 27.8488 331.644C19.4132 331.707 11.4277 334.038 3.42301 330.232C2.25965 329.682 1.11064 329.031 -6.10352e-05 328.298Z" fill="white"/>
<path d="M-9.16293e-05 298.884L-9.1708e-05 300.684C0.636646 300.401 1.27338 300.148 1.91491 299.927C9.75682 297.232 19.0924 298.845 26.8577 301.081C26.9918 301.119 27.0349 300.928 26.9152 300.88C24.8278 300.037 22.956 299.152 20.7489 298.572C18.5419 297.993 16.2774 297.629 14.0129 297.356C9.3499 296.801 4.53365 297.27 0.105219 298.845C0.0717067 298.855 0.0382079 298.869 -9.16293e-05 298.884Z" fill="white"/>
<path d="M-9.16324e-05 293.55C1.30211 293.364 2.61389 293.249 3.92567 293.196C4.04057 293.316 4.19856 293.402 4.40921 293.412C19.418 294.115 34.3933 297.088 48.4446 302.398C58.867 306.333 69.9788 310.383 78.5676 317.751C81.6843 320.427 85.1504 324.052 85.4472 328.389C85.8494 334.369 78.6633 337.605 73.8375 338.242C71.0081 338.615 68.1069 338.433 65.2727 338.27C61.4619 338.05 57.651 338.026 53.8354 338.151C46.6254 338.385 39.65 339.764 32.5071 340.592C26.4748 341.291 20.3851 341.334 14.4055 340.205C9.26374 339.233 4.61027 337.193 -9.34386e-05 334.871L-9.3524e-05 336.825C5.8646 339.582 11.9543 341.751 18.4892 342.479C24.5359 343.149 30.6495 342.56 36.6434 341.698C44.2316 340.607 51.6379 339.673 59.3266 339.697C65.402 339.716 71.6066 340.779 77.567 339.118C81.6029 337.988 85.6531 334.871 86.8117 330.687C88.9373 323.017 79.6544 316.138 74.3307 312.566C70.4049 309.933 66.1823 308.08 61.864 306.204C55.0418 303.236 48.1574 300.392 41.0767 298.094C32.0235 295.154 22.2953 293.392 12.6724 292.516C11.6527 292.354 10.6282 292.2 9.60364 292.066C6.31941 291.635 3.15009 291.611 0.00469969 292.023L0.00469963 293.55L-9.16324e-05 293.55Z" fill="white"/>
<path d="M-9.15703e-05 335.858C0.612713 336.169 1.22553 336.475 1.83354 336.786C1.87184 336.805 1.90536 336.753 1.86706 336.729C1.23989 336.308 0.617501 335.881 -9.15527e-05 335.455L-9.15703e-05 335.858Z" fill="white"/>
<path d="M-9.15725e-05 292.789L-9.16382e-05 294.292C1.13934 294.048 2.29314 293.862 3.45172 293.728C5.08906 293.536 6.94183 293.057 8.56959 293.167C8.76109 293.182 8.7563 292.89 8.56959 292.875C6.77427 292.703 5.28535 292.258 3.45172 292.349C2.29793 292.406 1.13934 292.579 -9.15725e-05 292.789Z" fill="white"/>
<path d="M-9.16274e-05 288.27C5.5199 288.337 11.0686 289.366 16.4785 290.611C18.4797 291.07 20.4809 291.52 22.482 291.966C28.3515 293.914 34.4939 294.762 40.5357 296.107C47.8653 297.744 54.9748 300.492 62.0555 302.967C72.4635 306.606 83.1828 309.617 93.2413 314.204C101.193 317.828 110.931 323.305 112.822 332.669C114.905 342.972 104.99 348.075 96.6309 349.885C85.8159 352.226 74.503 350.646 63.5779 350.373C55.8988 350.182 48.21 350.239 40.5405 350.704C33.115 351.154 25.7423 351.45 18.3121 350.905C12.2224 350.455 6.0561 349.382 -9.42322e-05 347.86L-9.43027e-05 349.473C3.4469 350.292 6.90347 350.972 10.3122 351.527C25.005 353.911 39.6739 351.91 54.4386 351.848C62.0507 351.814 69.6581 352.121 77.2606 352.456C81.9093 352.662 86.4813 352.796 91.1204 352.331C98.7374 351.575 107.747 349.531 112.406 342.833C116.652 336.729 114.364 328.806 109.921 323.592C104.482 317.215 96.1665 313.5 88.5735 310.46C78.9027 306.587 68.8633 303.609 59.0394 300.157C52.5332 297.869 46.027 295.552 39.2718 294.111C38.6398 293.976 38.0031 293.847 37.3664 293.718C37.1605 293.665 36.9594 293.613 36.7536 293.565C32.847 292.626 28.9068 291.803 24.9859 290.922C24.0284 290.707 23.0757 290.486 22.1182 290.261C21.6107 290.094 21.1032 289.921 20.6005 289.735C20.3803 289.653 20.1888 289.677 20.0452 289.773C14.5922 288.485 9.14404 287.217 3.53309 286.719C2.34579 286.613 1.16806 286.565 -9.15527e-05 286.561L-9.16274e-05 288.27Z" fill="white"/>
<path d="M-6.11147e-05 277.637C7.13811 277.503 14.2667 278.374 21.2565 279.791C35.6525 282.707 49.4309 288.231 62.8024 294.221C69.2416 297.103 75.5658 299.918 82.3449 301.919C89.2389 303.949 96.3101 305.323 103.362 306.697C115.01 308.966 126.998 310.943 137.703 316.329C145.076 320.04 154.885 326.857 152.491 336.47C149.849 347.103 137.315 351.47 128.013 353.787C117.715 356.353 107.12 357.339 96.9037 360.283C83.4413 364.166 70.4241 369.518 56.2866 370.328C44.7008 370.988 32.5932 369.308 21.1894 367.407C14.0513 366.215 6.96576 364.654 0.00472643 362.677L0.00472635 364.348C2.19261 364.956 4.3853 365.526 6.58754 366.062C17.9004 368.815 29.467 370.524 41.0623 371.429C46.9845 371.893 52.9449 372.228 58.8718 371.745C65.536 371.199 72.0709 369.614 78.4718 367.728C85.0594 365.784 91.5369 363.486 98.1341 361.586C103.046 360.168 108.039 359.216 113.071 358.335C123.245 356.554 133.973 355.041 143.094 349.847C150.217 345.792 156.767 337.519 153.66 328.94C150.792 321.021 141.787 316.205 134.577 313.088C123.259 308.195 110.697 306.525 98.699 304.116C91.6518 302.699 84.6429 301.072 77.8207 298.774C70.7927 296.404 64.1572 292.971 57.3494 290.041C44.246 284.411 30.707 279.58 16.603 277.263C11.3415 276.397 5.67792 275.803 0.00473022 275.817L0.00473015 277.637L-6.11147e-05 277.637Z" fill="white"/>
<path d="M6.18538 232.213C4.11718 232.366 2.05856 232.495 -6.1161e-05 232.586L-6.12307e-05 234.181C2.05378 234.075 4.11239 233.936 6.18538 233.774C10.8436 233.41 15.4923 232.921 20.1314 232.357C24.7848 231.792 29.2803 230.647 33.8763 229.934C34.0247 229.91 33.9625 229.69 33.8141 229.709C29.3234 230.341 24.6651 230.427 20.1314 230.93C15.4875 231.442 10.8388 231.868 6.18538 232.213Z" fill="white"/>
<path d="M-6.11076e-05 232.577C2.37453 232.558 4.73955 232.419 7.0136 231.916C7.17637 231.878 7.17637 231.619 7.0136 231.581C4.73955 231.078 2.37453 230.939 -6.10352e-05 230.92L-6.11076e-05 232.577Z" fill="white"/>
<path d="M-9.15837e-05 231.365L-9.16383e-05 232.615C0.0429958 232.615 0.0860929 232.615 0.12918 232.61C2.26919 232.591 4.97412 232.495 6.57793 230.877C6.66889 230.786 6.57792 230.628 6.45345 230.662C4.3278 231.265 2.1878 231.394 -9.15837e-05 231.365Z" fill="white"/>
<path d="M-9.15789e-05 232.05C0.722822 232.017 1.44575 231.978 2.16866 231.935C2.40325 231.921 2.40325 231.581 2.16866 231.567C1.44575 231.524 0.722822 231.49 -9.15527e-05 231.452L-9.15789e-05 232.05Z" fill="white"/>
<path d="M-8.97151e-05 269.12C1.2686 269.225 2.53728 269.335 3.80118 269.45C9.56054 269.967 15.1188 270.159 20.883 270.039C21.1128 270.034 21.108 269.694 20.883 269.685C13.9363 269.464 6.93699 268.22 -0.00488281 267.526L-0.00488288 269.12L-8.97151e-05 269.12Z" fill="white"/>
<path d="M206.801 328.671C214.193 327.982 221.613 327.048 229.024 326.627C236.115 326.22 243.018 327.685 250.07 326.464C253.402 325.89 256.672 324.932 259.932 324.047C263.518 323.075 267.142 322.385 270.757 321.557C277.464 320.02 283.889 317.454 290.194 314.735C296.844 311.863 303.403 308.205 310.546 306.754C325.909 303.638 341.473 310.781 356.338 313.596C363.003 314.855 369.691 316.109 376.369 317.306C378.591 317.703 380.802 318.038 383.01 318.259L383.01 316.597C380.644 316.305 378.303 315.908 376.048 315.506C369.887 314.4 363.769 313.122 357.597 312.064C344.183 309.77 331.338 304.332 317.569 304.346C310.819 304.356 304.825 306.386 298.716 309.071C292.042 312.006 285.431 315.089 278.537 317.483C271.786 319.829 264.725 320.94 257.84 322.816C254.384 323.755 250.913 324.66 247.356 325.138C243.569 325.646 239.926 325.11 236.148 324.87C228.742 324.401 221.326 325.603 213.982 326.369C210.746 326.709 207.471 326.761 204.254 327.25C200.946 327.752 197.757 328.944 194.65 330.156C188.503 332.554 182.471 335.245 175.739 335.149C169.698 335.063 164.901 330.73 161.056 326.512C153.435 318.158 146.761 308.54 135.979 304.035C129.219 301.21 121.823 299.621 114.78 297.644C107.24 295.528 99.6996 293.416 92.2072 291.133C76.6287 286.383 61.548 280.188 46.0461 275.209C38.4244 272.763 30.6639 270.695 22.798 269.225C19.2744 268.564 15.7173 268.081 12.1506 267.727C8.25839 267.344 4.60074 267.727 0.746796 267.794C0.569641 267.798 0.569641 268.071 0.746796 268.071C3.95441 268.043 7.18118 268.665 10.4032 268.923C14.439 269.249 18.4462 269.857 22.4246 270.599C29.7112 271.959 36.8637 273.974 43.9205 276.224C58.1968 280.782 72.0757 286.494 86.3425 291.094C101.198 295.887 116.322 299.923 131.331 304.193C143.419 307.63 151.06 317.636 158.95 326.723C162.33 330.615 166.131 334.225 171.038 336.011C176.434 337.974 182.686 336.446 187.895 334.637C194.152 332.463 200.089 329.294 206.801 328.671Z" fill="white"/>
<path d="M249.539 312.782C257.591 312.37 263.858 308.478 270.939 305.06C278.834 301.249 287.092 298.218 295.676 296.428C304.116 294.666 312.389 292.296 320.81 290.463C330.06 288.452 339.156 288.878 348.487 289.945C357.214 290.941 365.966 291.65 374.708 292.559C377.466 292.847 380.233 293.115 383 293.416L383 292.21C369.763 290.194 356.41 288.935 343.082 287.619C334.297 286.747 325.89 287.389 317.311 289.414C313.294 290.362 309.325 291.501 305.328 292.521C300.985 293.632 296.566 294.321 292.205 295.341C284.191 297.213 276.507 300.358 269.105 303.925C265.247 305.787 261.565 308.119 257.51 309.512C253.469 310.9 249.132 311.063 244.904 311.034C240.921 311.006 236.952 310.723 232.974 310.876C228.483 311.049 224.012 311.815 219.603 312.657C211.382 314.232 203.268 316.315 194.995 317.622C186.741 318.929 178.277 319.221 170.138 317.076C161.794 314.879 154.603 309.229 147.297 304.839C140.302 300.641 133.069 296.854 125.294 294.345C117.15 291.712 108.724 289.96 100.413 287.959C92.0875 285.957 83.8099 283.741 75.8531 280.543C67.4127 277.148 58.958 273.85 50.4123 270.738C42.1347 267.722 33.9002 264.337 25.503 261.68C18.1781 259.363 10.4128 258.482 2.76712 258.18C1.84793 258.142 0.928741 258.118 0.00473022 258.099L0.00473014 260.014C10.6521 260.234 21.1415 261.924 31.3341 265.74C39.9133 268.952 48.55 271.997 57.134 275.181C65.4738 278.273 73.6269 281.95 82.0481 284.804C98.4453 290.362 116.149 291.999 132.101 298.888C139.876 302.249 147.077 306.841 154.268 311.283C160.984 315.439 167.471 319.001 175.419 320.025C191.639 322.122 207.567 316.612 223.361 313.826C232.146 312.284 240.715 313.237 249.539 312.782Z" fill="white"/>
<path d="M195.589 330.955C192.256 331.372 189.346 332.08 186.133 333.129C182.413 334.349 178.804 334.402 174.983 333.612C171.392 332.87 168.003 331.329 164.886 329.423C162.004 327.661 160.003 325.1 157.327 323.171C157.097 323.008 156.815 323.324 156.953 323.549C158.73 326.469 160.621 328.494 163.469 330.433C166.595 332.559 170.186 334.057 173.834 335.005C177.023 335.834 180.35 335.958 183.586 335.388C187.771 334.651 191.447 331.908 195.636 331.3C195.828 331.271 195.78 330.931 195.589 330.955Z" fill="white"/>
<path d="M-6.11099e-05 267.947C2.74796 267.956 5.49599 268.105 8.22965 268.363C13.1608 268.828 17.8908 270.092 22.7549 270.886C24.9285 271.241 27.102 271.552 29.2659 271.954C31.7889 272.428 34.7668 272.801 37.1174 273.864C37.3089 273.95 37.4765 273.673 37.285 273.577C35.5184 272.686 33.9577 271.739 32.0523 271.131C29.7064 270.384 27.1977 270.068 24.7801 269.666C20.117 268.89 15.5641 267.612 10.8676 266.989C7.24822 266.511 3.62886 266.257 -0.00485229 266.238L-0.00485237 267.947L-6.11099e-05 267.947Z" fill="white"/>
<path d="M129.195 354.629C127.022 354.917 124.786 354.648 122.579 354.964C119.812 355.357 117.145 356.027 114.455 356.774C109.543 358.139 104.616 359.527 99.7523 361.064C95.0557 362.548 90.4167 364.185 85.6004 365.253C81.5071 366.162 76.284 365.717 72.7125 368.149C72.3917 368.369 72.5976 368.815 72.9662 368.757C77.0356 368.092 81.1624 367.881 85.2222 367.158C90.0672 366.296 94.7398 364.616 99.4076 363.098C109.222 359.905 119.194 357.181 129.229 354.907C129.382 354.869 129.353 354.605 129.195 354.629Z" fill="white"/>
<path d="M99.331 361.48C97.3489 360.915 95.3956 361.317 93.4232 361.758C91.1156 362.28 88.492 362.883 86.3999 364.003C85.9738 364.233 86.1845 364.884 86.6393 364.889C88.5543 364.913 90.4358 364.152 92.2598 363.625C94.5913 362.95 97.0377 362.653 99.3357 361.878C99.5225 361.82 99.5368 361.538 99.331 361.48Z" fill="white"/>
<path d="M94.7446 363.256C88.7506 364.463 82.905 366.474 76.8584 367.417C73.2487 367.977 69.6485 368.585 66.0387 369.14C64.2338 369.418 62.4289 369.681 60.6288 369.968C58.6803 370.284 56.7557 371.055 54.8072 371.194C54.6349 371.208 54.6301 371.462 54.8072 371.467C58.1872 371.52 61.3039 371.481 64.6838 371.022C68.6048 370.485 72.5114 369.858 76.418 369.246C80.1618 368.661 83.6998 367.579 87.3622 366.651C89.957 365.995 93.0929 365.746 94.9504 363.596C95.0749 363.438 94.9456 363.213 94.7446 363.256Z" fill="white"/>
<path d="M84.9398 331.994C84.0397 333.004 83.3791 334.177 82.5077 335.211C81.2726 336.686 79.5538 337.739 77.792 338.448C74.1966 339.898 69.5001 339.166 65.718 339.041C61.4236 338.902 57.1388 338.677 52.8396 338.649C50.2065 338.629 47.0323 337.931 44.9115 339.841C44.7918 339.951 44.8876 340.157 45.0408 340.157C53.462 340.133 61.8927 340.741 70.3187 340.832C73.8854 340.87 77.0739 340.808 80.2528 339.022C82.6083 337.701 85.1839 334.934 85.1791 332.09C85.1791 331.975 85.0259 331.903 84.9398 331.994Z" fill="white"/>
<path d="M383 250.52L383 249.237C382.081 249.103 381.166 248.974 380.252 248.864C371.855 247.863 363.429 247.088 354.974 246.872C339.376 246.465 323.989 249.386 308.463 250.295C290.654 251.339 272.624 250.587 254.786 250.487C238.762 250.396 222.734 250.247 206.71 249.927C195.904 249.711 185.066 249.52 174.284 248.72C169.315 248.352 164.403 247.49 159.443 246.992C149.877 246.034 140.25 245.872 130.646 245.905C121.047 245.944 111.448 246.236 101.849 246.307C92.3125 246.374 82.7854 245.671 73.2583 245.838C63.9657 246.001 54.7067 247.083 45.4429 247.768C35.8248 248.476 26.7238 247.586 17.2254 246.001C11.4277 245.029 5.74493 244.33 -0.00964355 243.952L-0.00964362 245.403C1.68515 245.498 3.37515 245.632 5.06033 245.814C14.1566 246.796 23.0805 248.95 32.215 249.649C41.407 250.353 50.7618 248.95 59.9203 248.213C69.3373 247.452 78.5963 247.519 88.0229 247.806C97.6171 248.103 107.221 247.892 116.82 247.72C134.682 247.394 152.233 247.686 169.971 249.936C178.928 251.071 188.096 251.085 197.106 251.325C229.867 252.206 262.657 252.201 295.422 252.22C311.59 252.23 327.417 249.62 343.503 248.625C356.693 247.796 369.882 249.103 383 250.52Z" fill="white"/>
<path d="M232.725 279.949C240.806 278.072 248.567 276.291 256.878 275.626C264.806 274.989 272.773 274.913 280.72 274.683C288.729 274.453 296.399 273.304 304.293 272.026C313.217 270.58 321.562 271.03 330.371 272.979C338.012 274.668 345.514 276.861 353.327 277.598C363.213 278.532 373.166 277.297 382.995 275.454L382.995 273.831C370.821 275.918 358.584 277.263 346.242 274.965C337.868 273.405 329.749 270.748 321.275 269.68C312.466 268.574 303.843 270.46 295.183 271.844C286.331 273.261 277.292 273.046 268.354 273.333C260.004 273.601 251.65 274.132 243.42 275.626C239.284 276.378 235.263 277.622 231.174 278.57C226.42 279.671 221.594 280.452 216.768 281.179C207.433 282.587 198.126 283.908 188.848 285.646C179.9 287.322 170.88 288.638 161.765 288.686C152.439 288.734 143.601 286.79 134.701 284.176C116.954 278.972 99.4459 272.983 81.579 268.191C63.6115 263.375 45.2466 260.593 26.8531 257.979C18.0106 256.72 9.01483 255.504 -0.00482178 254.705L-0.00482186 256.577C16.1913 257.898 32.2725 260.416 48.3106 262.973C66.7186 265.903 84.5712 270.537 102.385 275.999C111.233 278.714 120.047 281.534 128.899 284.22C137.363 286.786 145.741 289.27 154.579 290.084C172.326 291.712 189.753 286.747 207.169 284.248C215.73 283.023 224.299 281.907 232.725 279.949Z" fill="white"/>
<path d="M363.773 264.304C370.146 263.27 376.561 262.264 383 261.489L383 260.249C380.779 260.431 378.557 260.641 376.326 260.914C369.786 261.714 363.29 262.829 356.774 263.801C347.185 265.232 337.571 264.782 327.91 264.596C315.429 264.356 302.948 264.026 290.462 263.849C276.272 263.648 262.082 264.088 247.892 264.189C220.474 264.38 193.065 263.997 165.657 263.49C155.067 263.293 144.463 263.375 133.882 262.848C114.565 261.891 95.3574 259.377 76.1547 257.141C66.7377 256.045 57.2967 254.872 47.8318 254.288C41.3496 253.886 34.8529 254.307 28.3707 254.006C20.8974 253.656 13.6108 252.344 6.24762 251.095C4.16507 250.741 2.08252 250.458 -0.00485229 250.224L-0.00485237 251.918C1.67078 252.11 3.3464 252.33 5.01245 252.598C11.7101 253.675 18.3265 254.982 25.1056 255.504C31.8129 256.021 38.4962 255.667 45.2083 255.868C54.386 256.141 63.5827 257.405 72.6981 258.444C82.321 259.54 91.9391 260.727 101.567 261.79C118.601 263.672 135.601 264.864 152.736 264.998C161.525 265.065 170.31 265.285 179.1 265.443C210.291 266.003 241.486 266.118 272.677 265.587C295.676 265.199 318.661 266.348 341.655 266.463C349.152 266.492 356.377 265.505 363.773 264.304Z" fill="white"/>
<path d="M125.011 364.3C132.125 362.921 139.192 360.796 144.908 356.152C151.285 350.967 156.738 345.356 165.13 343.843C173.216 342.388 181.662 343.163 189.824 343.302C198.226 343.446 206.619 342.594 215.011 342.254C223.768 341.904 232.529 342.627 241.261 342.278C249.117 341.962 256.658 339.391 264.136 337.188C281.424 332.099 300.607 332.128 318.34 334.527C335.546 336.853 352.504 341.133 369.978 340.726C374.392 340.621 378.71 339.865 383.005 338.931L383.005 337.275C378.706 338.156 374.392 338.902 369.978 339.06C360.906 339.386 351.8 338.179 342.857 336.767C334.407 335.431 326.01 333.765 317.521 332.655C308.679 331.496 299.927 331.161 291.022 331.496C282.491 331.817 273.969 332.693 265.701 334.886C257.563 337.045 249.745 339.975 241.261 340.492C237.134 340.741 232.969 340.31 228.838 340.248C224.227 340.181 219.617 340.296 215.011 340.468C206.614 340.779 198.231 341.622 189.824 341.512C182.049 341.411 174.179 340.774 166.442 341.847C159.002 342.881 153.636 346.357 148.01 351.163C144.889 353.83 141.906 356.439 138.234 358.325C134.533 360.231 130.45 361.294 126.409 362.174C122.493 363.027 118.653 363.764 114.842 365.037C110.984 366.325 107.24 367.963 103.52 369.595C95.4387 373.147 87.5106 376.484 78.8309 378.256C69.8639 380.089 60.6671 380.669 51.5326 380.683C42.6661 380.697 33.814 379.907 24.9428 379.764C16.5455 379.63 8.17221 379.285 0.00951948 377.245L0.0095194 379.141C8.12433 381.238 16.6125 381.439 24.9428 381.583C42.5177 381.88 59.7862 383.45 77.2462 380.396C94.036 377.461 108.341 367.532 125.011 364.3Z" fill="white"/>
<path d="M14.7741 383C13.2517 382.818 11.7245 382.646 10.1973 382.488C6.79336 382.138 3.39424 381.818 -9.15527e-05 381.454L-9.16203e-05 383L14.7741 383Z" fill="white"/>
<path d="M133.925 370.155C140.872 367.422 147.321 363.577 154.004 360.274C161.865 356.391 169.87 354.28 178.473 352.824C196.632 349.746 215.169 349.32 233.544 349.856C252.009 350.392 270.455 349.071 288.863 347.74C297.945 347.084 307.022 346.471 316.095 345.701C325.311 344.92 334.56 344.298 343.752 345.619C352.599 346.893 361.145 349.693 369.968 351.053C374.359 351.728 378.71 351.541 383 350.818L383 349.631C378.864 350.234 374.674 350.364 370.323 349.765C361.494 348.559 352.939 345.643 344.13 344.245C335.546 342.881 326.862 343.355 318.235 343.992C309.181 344.662 300.133 345.351 291.075 345.993C272.658 347.295 254.221 348.635 235.746 348.243C217.855 347.865 200.074 348.003 182.318 350.517C174.097 351.68 165.892 353.164 158.222 356.463C151.141 359.508 144.501 363.453 137.53 366.732C129.392 370.562 120.497 372.683 111.917 375.268L86.2899 383L92.7195 383C97.8469 381.435 102.95 379.773 108.059 378.232C116.667 375.632 125.552 373.449 133.925 370.155Z" fill="white"/>
<path d="M147.182 368.757C162.909 363.261 179 360.757 195.651 361.241C212.417 361.729 229.067 365.042 245.144 369.72C252.655 371.903 259.779 374.292 267.588 375.225C275.583 376.183 283.07 376.221 290.912 374.244C298.323 372.377 305.419 369.418 312.791 367.402C321.505 365.018 330.275 362.835 339.185 361.318C347.951 359.829 356.75 359.321 365.626 359.651C371.39 359.867 377.226 359.943 383 360.484L383 359.398C377.873 358.794 372.707 358.526 367.532 358.287C358.938 357.89 350.517 358.139 341.985 359.331C333.038 360.58 324.233 362.711 315.506 365.018C307.654 367.096 300.076 369.959 292.282 372.209C283.932 374.617 276.124 374.531 267.588 373.53C258.975 372.52 251.056 369.514 242.76 367.173C226.769 362.663 210.243 359.881 193.626 359.503C177.516 359.139 161.947 361.897 146.737 367.129C139.249 369.705 131.905 372.731 124.748 376.111C119.108 378.773 113.507 381.071 107.7 383.005L113.076 383.005C116.753 381.655 120.362 380.132 123.924 378.38C131.455 374.67 139.264 371.524 147.182 368.757Z" fill="white"/>
<path d="M212.713 375.967C228.316 376.259 243.684 377.135 259.205 378.787C274.692 380.434 290.046 381.42 305.605 380.281C312.763 379.754 319.886 378.835 326.981 377.772C334.402 376.661 341.665 374.722 349.066 373.511C357.214 372.176 364.712 372.64 372.597 375.048C375.68 375.986 378.749 377.02 381.975 377.26C382.315 377.284 382.66 377.298 383 377.312L383 376.283C378.844 376.034 375 374.536 371.065 373.238C363.366 370.701 355.596 370.993 347.683 372.266C339.166 373.64 330.821 375.737 322.266 376.934C313.213 378.198 304.112 379.031 294.972 379.28C276.837 379.773 258.903 376.886 240.878 375.388C231.868 374.641 222.834 374.569 213.8 374.383C204.752 374.196 195.699 374.091 186.65 374.397C177.899 374.694 169.166 375.479 160.525 376.934C151.644 378.428 142.825 380.745 134.079 382.871C133.902 382.914 133.724 382.957 133.547 383L140.666 383C146.363 381.655 152.075 380.362 157.81 379.17C175.802 375.412 194.425 375.622 212.713 375.967Z" fill="white"/>
<path d="M348.559 184.271C360.02 183.424 371.505 182.667 383 182.155L383 180.757C359.982 181.59 337.021 183.495 314.041 185.286C282.855 187.718 251.703 189.087 220.417 188.838C212.575 188.776 204.728 188.407 196.958 187.321C189.566 186.286 181.939 187.038 174.519 187.306C158.892 187.866 143.472 184.285 128.224 181.264C113.574 178.363 98.9193 175.404 84.0541 173.834C68.6192 172.202 52.945 172.216 37.4383 172.125C28.5239 172.072 19.5905 171.938 10.6809 172.096C7.20999 172.159 3.55713 172.297 -3.65334e-08 172.857L-1.11452e-07 174.571C2.34109 174.227 4.70612 174.05 6.99933 173.92C13.1321 173.576 19.3032 173.791 25.4456 173.791C41.0576 173.796 56.6553 173.983 72.253 174.643C87.6304 175.294 102.84 178.014 117.921 180.958C132.657 183.835 147.517 187.469 162.488 188.848C170.176 189.556 177.932 188.776 185.626 188.599C193.334 188.417 200.864 189.686 208.539 190.164C223.969 191.131 239.624 190.624 255.068 190.303C286.302 189.662 317.416 186.578 348.559 184.271Z" fill="white"/>
<path d="M239.399 194.588C247.293 194.224 255.202 194.157 263.102 194.329C270.719 194.497 278.24 195.153 285.842 194.401C293.282 193.664 300.621 192.151 308.033 191.189C323.501 189.183 338.941 190.303 354.361 192.165C363.907 193.314 373.391 194.732 382.995 195.277L382.995 193.602C379.534 193.429 376.077 193.209 372.645 192.817C357.219 191.045 341.875 188.46 326.306 188.374C318.919 188.331 311.518 188.982 304.207 190.04C296.633 191.136 289.112 192.616 281.462 193.075C273.797 193.535 266.032 192.659 258.357 192.572C250.496 192.486 242.52 192.481 234.683 193.18C219.665 194.521 204.694 196.431 189.614 196.948C174.519 197.465 159.515 195.713 144.496 194.468C136.707 193.822 128.961 192.831 121.363 190.959C114.196 189.192 106.843 187.732 99.5704 186.492C84.7483 183.964 69.6629 185.674 54.7211 186.052C36.4807 186.511 18.2356 186.502 -0.00482185 186.727L-0.00482191 188.13C11.9352 188.245 23.8752 188.187 35.8153 188.063C51.5039 187.9 67.1638 187.043 82.8381 186.736C97.9474 186.444 112.607 191.17 127.304 193.98C134.428 195.34 141.676 195.957 148.896 196.508C156.374 197.082 163.838 197.939 171.321 198.423C186.416 199.399 201.539 198.14 216.563 196.651C224.165 195.895 231.768 194.942 239.399 194.588Z" fill="white"/>
<path d="M383 220.531L383 219.071C378.998 218.334 374.981 217.683 370.916 217.151C355.242 215.107 339.525 213.977 323.721 213.891C307.898 213.8 292.081 214.245 276.258 213.92C260.603 213.599 245.043 212.005 229.513 210.08C213.977 208.156 198.49 205.891 182.945 204.077C175.251 203.177 167.524 202.277 159.792 201.817C152.147 201.367 144.477 201.391 136.832 200.898C122.45 199.974 108.719 194.765 94.1606 196.45C86.4335 197.346 78.8358 198.624 71.0513 199.074C63.4008 199.519 55.7265 199.529 48.0665 199.395C36.859 199.203 25.6801 198.49 14.4822 198.145C9.66119 197.997 4.82101 197.997 0.00479116 198.313L0.00479109 199.983C8.76114 199.438 17.6228 199.907 26.3456 200.362C41.5124 201.147 56.7989 201.592 71.9705 200.711C79.7454 200.261 87.3336 198.935 95.051 198.04C102.242 197.207 109.452 198.155 116.528 199.447C123.608 200.745 130.546 202.186 137.746 202.645C145.392 203.134 153.061 203.1 160.707 203.545C176.247 204.455 191.768 206.758 207.189 208.812C222.7 210.875 238.207 212.977 253.795 214.356C285.273 217.142 316.899 214.078 348.382 216.438C359.915 217.309 371.625 218.363 383 220.531Z" fill="white"/>
<path d="M346.486 228.809C358.627 228.263 370.84 228.081 383 228.67L383 227.234C356.908 225.745 330.73 228.211 304.638 229.618C297.155 230.02 289.988 230.327 282.601 228.795C276.282 227.488 270.149 225.419 263.791 224.275C256.849 223.026 249.649 223.107 242.63 222.595C234.808 222.02 227.014 221.183 219.272 219.904C212.077 218.712 204.536 218.683 197.264 218.549C189.595 218.406 181.92 218.525 174.246 218.573C166.624 218.621 159.002 218.588 151.386 218.209C143.682 217.826 136.066 216.888 128.334 216.926C120.592 216.965 112.851 217.64 105.167 218.535C97.9283 219.378 90.5795 218.439 83.3743 217.74C67.9203 216.242 52.3657 217.353 36.9547 218.923C24.5934 220.187 12.2847 221.987 0.00479096 223.806L0.0047909 225.051C10.4368 223.758 20.8783 222.384 31.3198 221.192C46.7164 219.435 62.52 217.86 78.0219 218.937C85.3467 219.445 92.6238 220.541 99.9822 220.493C107.585 220.445 115.197 219.071 122.804 218.731C130.584 218.382 138.229 218.894 145.98 219.526C153.545 220.139 161.142 220.254 168.731 220.263C184.012 220.282 199.318 219.741 214.561 221.082C222.14 221.747 229.642 223.131 237.23 223.816C244.689 224.486 252.191 224.639 259.64 225.343C266.286 225.97 272.701 228.081 279.15 229.676C285.752 231.308 292.152 231.839 298.936 231.528C314.792 230.801 330.625 229.527 346.486 228.809Z" fill="white"/>
<path d="M358.713 233.845C366.397 233.994 374.062 234.659 381.712 235.282C382.138 235.315 382.569 235.354 382.995 235.387L382.995 233.472C374.593 232.826 366.181 232.275 357.779 232.117C342.335 231.825 326.967 234.228 311.575 235.148C304.035 235.598 296.538 235.713 289.026 234.808C282.415 234.013 275.918 232.515 269.402 231.198C255.94 228.479 242.022 228.828 228.345 228.661C220.795 228.565 213.274 228.747 205.733 228.804C205.551 228.804 205.556 229.077 205.733 229.082C213.585 229.441 221.422 229.905 229.288 230.169C237.139 230.432 244.991 230.652 252.842 230.93C265.419 231.375 277.426 235.109 289.878 236.608C305.002 238.427 320.514 236.196 335.594 234.87C343.297 234.2 350.976 233.702 358.713 233.845Z" fill="white"/>
<path d="M127.668 217.295C116.485 217.19 105.325 217.175 94.1366 216.797C83.7621 216.448 73.2248 215.864 62.946 217.688C62.6253 217.745 62.6205 218.291 62.946 218.344C67.6138 219.052 72.6742 217.688 77.3995 217.692C82.9817 217.702 88.5592 217.893 94.1366 218.08C105.229 218.454 116.671 219.157 127.687 217.443C127.774 217.429 127.75 217.295 127.668 217.295Z" fill="white"/>
<path d="M107.896 217.453C102.802 216.668 97.4352 216.95 92.2934 216.864C89.5406 216.821 86.7878 216.773 84.035 216.74C81.3444 216.706 78.3522 216.328 75.7287 216.974C75.3361 217.07 75.3361 217.669 75.7287 217.769C78.0793 218.358 80.7077 218.08 83.1206 218.104C85.8734 218.128 88.6262 218.166 91.379 218.205C96.808 218.277 102.519 218.76 107.901 217.937C108.13 217.898 108.13 217.491 107.896 217.453Z" fill="white"/>
<path d="M107.565 217.482C104.181 216.481 100.274 216.936 96.7888 217.037C93.2939 217.137 89.3491 216.759 85.9451 217.554C85.4903 217.659 85.4855 218.372 85.9451 218.478C89.3491 219.244 93.3227 218.564 96.7888 218.43C100.317 218.296 104.104 218.631 107.565 217.903C107.786 217.86 107.762 217.539 107.565 217.482Z" fill="white"/>
<path d="M107.719 216.974C104.755 217.826 102.041 218.109 98.9624 217.951C96.4442 217.822 93.5142 217.104 91.063 217.874C90.6369 218.008 90.589 218.683 91.063 218.789C93.7919 219.411 96.9468 219.263 99.7475 219.397C102.515 219.531 105.708 219.402 108.035 217.721C108.394 217.467 108.193 216.84 107.719 216.974Z" fill="white"/>
<path d="M106.23 217.707C100.71 217.98 95.0798 217.434 89.5933 218.013C89.1768 218.056 89.1816 218.616 89.5933 218.66C95.0415 219.263 100.906 219.224 106.311 218.31C106.656 218.253 106.57 217.688 106.23 217.707Z" fill="white"/>
<path d="M243.813 251.009C249.687 251.665 255.696 251.267 261.594 251.114C267.765 250.956 273.931 250.745 280.102 250.669C286.269 250.592 292.435 250.683 298.592 251.013C303.527 251.277 309.296 252.77 314.031 250.75C314.309 250.63 314.156 250.2 313.883 250.204C311.389 250.233 308.933 250.583 306.429 250.506C303.494 250.415 300.598 249.86 297.663 249.687C291.817 249.347 285.957 249.309 280.102 249.371C274.242 249.434 268.382 249.62 262.523 249.821C256.304 250.037 249.998 249.917 243.813 250.626C243.569 250.654 243.569 250.985 243.813 251.009Z" fill="white"/>
<path d="M275.123 250.343C278.805 251.444 282.439 251.808 286.273 251.784C288.456 251.77 290.644 251.66 292.827 251.569C294.632 251.492 296.538 251.617 298.295 251.148C298.616 251.061 298.62 250.578 298.295 250.492C295.087 249.683 291.204 250.496 287.925 250.626C283.736 250.788 279.331 250.894 275.209 250.008C274.999 249.96 274.913 250.276 275.123 250.343Z" fill="white"/>
<path d="M289.979 250.808C287.346 250.243 284.737 250.027 282.046 250.027C279.461 250.027 276.631 249.865 274.099 250.429C273.716 250.516 273.706 251.133 274.099 251.215C276.382 251.693 278.848 251.329 281.165 251.239C284.071 251.128 286.996 251.119 289.883 251.487C290.276 251.535 290.357 250.884 289.979 250.808Z" fill="white"/>
<path d="M285.728 249.826C281.538 249.807 277.302 249.706 273.184 250.592C272.926 250.65 272.978 251.08 273.247 251.057C277.412 250.745 281.548 250.549 285.728 250.525C286.178 250.525 286.178 249.826 285.728 249.826Z" fill="white"/>
<path d="M350.364 288.638C341.65 288.222 333.373 287.906 324.746 289.519C320.379 290.338 316.056 291.367 311.681 292.129C307.659 292.827 303.662 292.713 299.851 294.398C299.257 294.661 299.688 295.561 300.277 295.418C304.188 294.446 308.1 294.154 312.054 293.488C316.138 292.799 320.164 291.803 324.214 290.951C332.904 289.122 341.545 289.261 350.364 288.902C350.526 288.887 350.526 288.648 350.364 288.638Z" fill="white"/>
<path d="M307.808 332.339C302.948 331.884 298.18 332.056 293.325 332.588C288.466 333.119 283.717 334.254 278.838 334.675C273.993 335.096 269.134 335.226 264.304 335.848C259.731 336.437 254.968 337.126 251.061 339.716C250.855 339.855 250.985 340.176 251.229 340.114C255.897 338.993 260.426 337.73 265.208 337.112C270.029 336.485 274.908 336.384 279.743 335.958C284.325 335.556 288.768 334.445 293.321 333.861C298.122 333.244 302.987 333.148 307.803 332.679C308.023 332.655 308.023 332.358 307.808 332.339Z" fill="white"/>
<path d="M289.888 332.32C286.345 331.975 282.956 332.262 279.442 332.784C275.856 333.315 271.791 333.603 268.349 334.718C267.928 334.857 268.038 335.412 268.449 335.46C271.557 335.81 274.98 334.776 278.034 334.239C281.945 333.555 285.909 332.837 289.888 332.698C290.137 332.688 290.127 332.343 289.888 332.32Z" fill="white"/>
<path d="M289.251 332.655C286.618 332.31 283.927 332.841 281.318 333.22C278.407 333.641 275.363 333.708 272.495 334.316C272.069 334.407 272.054 335.115 272.495 335.197C274.932 335.642 277.488 335.115 279.916 334.747C283.027 334.273 286.269 333.842 289.299 332.995C289.495 332.942 289.433 332.679 289.251 332.655Z" fill="white"/>
<path d="M288.93 333.004C284.31 332.698 278.269 332.564 274.027 334.761C273.706 334.929 273.85 335.47 274.214 335.451C276.32 335.321 278.427 334.689 280.509 334.34C283.276 333.88 286.134 333.526 288.93 333.296C289.117 333.282 289.117 333.019 288.93 333.004Z" fill="white"/>
<path d="M379.16 194.052C376.819 194.157 374.349 193.86 371.994 193.836C369.293 193.812 366.593 193.64 363.903 193.429C358.775 193.027 353.677 192.347 348.573 191.701C338.227 190.385 328.02 189.647 317.593 190.265C306.955 190.897 296.394 192.424 285.775 193.305C280.586 193.736 275.439 193.932 270.24 193.554C265.122 193.185 260.138 192.534 255.011 192.793C254.422 192.821 254.427 193.669 255.011 193.702C260.086 194.033 265.165 194.679 270.24 195.086C275.434 195.502 280.591 195.249 285.775 194.847C296.404 194.013 306.955 192.419 317.593 191.715C328.011 191.031 338.232 191.854 348.573 193.056C353.677 193.65 358.775 194.262 363.903 194.66C366.296 194.847 368.695 194.952 371.098 195.005C373.875 195.062 376.436 194.631 379.16 194.377C379.366 194.363 379.376 194.042 379.16 194.052Z" fill="white"/>
<path d="M367.412 193.741C363.903 191.189 358.311 192.347 354.246 191.639C351.288 191.122 348.343 190.533 345.375 190.064C342.713 189.638 339.822 189.106 337.169 189.762C336.896 189.829 336.906 190.236 337.169 190.308C339.692 191.002 342.416 191.036 345.002 191.423C347.97 191.869 350.914 192.481 353.873 192.994C358.301 193.76 362.859 193.496 367.321 194.071C367.512 194.095 367.532 193.832 367.412 193.741Z" fill="white"/>
<path d="M352.973 191.141C348.87 190.236 344.662 189.461 340.444 189.8C340.147 189.824 340.152 190.231 340.444 190.26C344.614 190.648 348.76 190.586 352.872 191.495C353.102 191.548 353.203 191.194 352.973 191.141Z" fill="white"/>
<path d="M230.336 278.987C227.564 279.437 224.701 279.595 221.905 280.026C218.832 280.5 215.763 280.983 212.685 281.433C206.303 282.376 199.902 283.171 193.487 283.851C187.335 284.502 181.169 284.923 175.002 285.426C169.023 285.914 163.072 286.676 157.087 287.044C151.333 287.398 145.789 287.102 140.144 285.866C134.376 284.598 128.755 282.683 123.134 280.892C118.223 279.327 113.406 277.838 108.628 275.894C104.195 274.099 99.8529 272.418 95.0271 272.753C94.7111 272.777 94.7063 273.242 95.0271 273.251C100.097 273.395 105.105 275.837 109.686 277.776C114.498 279.81 119.491 281.175 124.461 282.769C130.076 284.569 135.692 286.374 141.466 287.58C146.943 288.725 152.415 288.758 157.978 288.428C163.967 288.069 169.918 287.274 175.893 286.767C182.073 286.245 188.249 285.78 194.416 285.11C200.328 284.469 206.226 283.693 212.11 282.817C215.179 282.357 218.248 281.878 221.302 281.328C224.385 280.768 227.373 279.882 230.408 279.25C230.59 279.217 230.513 278.958 230.336 278.987Z" fill="white"/>
<path d="M191.093 285.603C188.469 285.048 185.664 285.407 183.012 285.622C180.005 285.866 177.013 286.259 174.021 286.628C171.005 287.001 167.989 287.365 164.963 287.652C162.263 287.911 159.318 287.7 156.728 288.576C156.546 288.638 156.542 288.892 156.728 288.954C159.328 289.797 162.287 289.285 164.963 289.055C167.993 288.796 171.005 288.394 174.021 288.006C177.013 287.619 180.01 287.245 183.012 286.939C185.683 286.661 188.469 286.728 191.093 286.139C191.356 286.082 191.361 285.661 191.093 285.603Z" fill="white"/>
<path d="M185.578 285.766C179.972 285.498 173.944 285.852 168.525 287.446C168.142 287.561 168.199 288.193 168.62 288.164C174.294 287.801 179.885 286.345 185.578 285.977C185.717 285.967 185.717 285.776 185.578 285.766Z" fill="white"/>
</g>
</g>
<defs>
<clipPath id="clip0">
<rect x="383" y="1.52588e-05" width="383" height="383" transform="rotate(90 383 1.52588e-05)" fill="white"/>
</clipPath>
</defs>
</svg>
